<?xml version="1.0" standalone="no"?>
<!DOCTYPE svg PUBLIC "-//W3C//DTD SVG 20010904//EN"
 "http://www.w3.org/TR/2001/REC-SVG-20010904/DTD/svg10.dtd">
<svg version="1.0" xmlns="http://www.w3.org/2000/svg"
 width="300.000000pt" height="294.000000pt" viewBox="0 0 300.000000 294.000000"
 preserveAspectRatio="xMidYMid meet">
<metadata>
Created by potrace 1.10, written by Peter Selinger 2001-2011
</metadata>
<g transform="translate(0.000000,294.000000) scale(0.050000,-0.050000)"
fill="#25008a" stroke="none">
<path d="M5834 4385 c-78 -74 -154 -145 -168 -158 -64 -58 -215 -55 -216 4 0
16 -5 26 -12 24 -6 -3 -27 7 -45 22 -28 24 -33 23 -33 -4 0 -18 -31 -45 -68
-61 -79 -33 -118 -90 -91 -133 14 -22 18 -23 19 -3 0 58 52 84 123 61 37 -11
99 -20 137 -18 69 3 70 2 30 -34 -499 -463 -1234 -1089 -1430 -1216 -161 -106
-202 -157 -71 -89 66 34 133 74 150 88 17 15 44 22 59 17 15 -6 22 -1 15 9 -6
11 29 49 78 85 49 35 85 71 80 80 -6 8 64 77 155 153 187 156 531 458 824 724
163 148 204 176 222 153 12 -16 28 -23 35 -15 7 7 13 3 13 -9 0 -23 -504 -438
-950 -780 -172 -133 -305 -245 -239 -202 22 15 130 95 240 179 109 83 212 147
227 142 16 -5 22 0 15 12 -14 21 664 589 718 600 16 4 29 14 29 23 0 9 50 59
110 110 97 83 132 103 194 109 7 1 12 19 11 41 -4 46 -13 41 -163 -87 -118
-101 -201 -130 -221 -77 -6 15 -21 21 -34 13 -15 -9 -18 -5 -8 10 8 13 25 17
38 8 15 -10 92 51 213 169 104 102 182 185 173 185 -9 0 -81 -61 -159 -135z"/>
<path d="M2153 4273 c-11 -42 -6 -68 19 -95 19 -21 25 -38 13 -38 -12 0 -17
-18 -11 -40 7 -27 1 -40 -19 -40 -18 0 -34 -24 -39 -60 -9 -61 13 -100 58
-100 35 0 33 -33 -2 -47 -16 -5 -45 8 -65 31 -20 23 -71 66 -112 96 l-74 55
94 26 c52 14 98 27 101 30 4 3 -8 39 -26 82 -25 60 -36 70 -51 47 -16 -26 -18
-26 -19 0 0 24 -4 25 -18 3 -12 -19 -21 -21 -31 -5 -25 40 -50 3 -32 -46 22
-57 -38 -125 -119 -136 -79 -11 -104 -33 -75 -65 14 -14 35 -22 47 -17 29 11
92 -51 77 -76 -6 -10 4 -18 22 -18 23 0 31 -12 24 -37 -8 -30 -1 -36 33 -30
26 5 22 -1 -13 -14 -44 -18 -61 -16 -86 9 -35 35 -69 42 -69 14 0 -9 -49 -42
-110 -71 -103 -50 -135 -93 -91 -120 10 -7 26 1 35 17 24 43 120 18 134 -35 9
-33 16 -37 29 -16 14 21 28 22 59 5 31 -16 43 -16 51 3 6 14 11 10 11 -11 1
-20 11 -31 22 -24 11 7 20 5 20 -5 0 -29 140 -16 163 15 18 26 19 26 11 -2 -6
-18 1 -31 17 -31 15 0 22 9 15 20 -8 12 1 15 21 7 18 -7 33 -4 33 6 0 10 14
13 31 7 25 -10 28 -1 19 46 -7 31 -14 75 -16 97 -2 22 -20 52 -39 66 -47 35
-44 63 5 50 35 -9 50 -41 43 -90 -2 -8 15 -24 37 -36 22 -12 40 -40 40 -62 0
-22 -9 -35 -20 -28 -11 7 -15 0 -9 -15 13 -34 -116 -99 -211 -106 -88 -6 -424
-69 -448 -84 -16 -10 97 -82 132 -84 7 -1 17 19 22 44 l9 45 2 -44 c2 -27 -14
-54 -38 -67 -33 -17 -37 -28 -18 -50 18 -22 14 -44 -19 -100 -48 -82 -53 -127
-17 -176 23 -31 29 -27 64 37 21 40 59 76 86 83 43 11 47 20 36 79 -12 66 -12
67 40 48 63 -24 95 -9 80 38 -7 21 -1 36 14 37 80 7 135 36 135 70 0 12 -13 5
-29 -16 -28 -37 -30 -37 -30 16 -1 37 9 55 30 55 17 0 26 8 20 19 -6 10 -4 23
6 29 62 39 9 -165 -90 -344 -59 -107 -107 -204 -107 -216 0 -13 -19 -46 -41
-75 -23 -29 -37 -60 -31 -69 5 -9 0 -55 -12 -103 -18 -71 -17 -89 7 -102 35
-20 51 -219 18 -219 -12 0 -21 11 -21 25 -1 17 -7 15 -20 -5 -18 -27 -22 -27
-40 0 -17 27 -19 27 -20 0 0 -23 -4 -24 -17 -4 -9 14 -31 20 -50 13 -18 -8
-33 -4 -33 9 0 12 -13 22 -30 22 -28 0 -39 -25 -31 -68 3 -19 -37 -51 -64 -52
-8 0 -15 16 -15 35 1 30 3 31 20 5 15 -23 19 -18 20 25 0 63 -51 76 -90 22
-26 -36 -130 -56 -130 -24 0 10 -9 14 -21 6 -11 -7 -33 -2 -47 10 -20 16 -43
16 -83 1 -39 -15 -60 -15 -69 0 -7 12 -28 16 -46 9 -19 -7 -47 1 -65 19 -34
34 -69 42 -69 16 0 -9 -25 -16 -55 -15 -45 1 -57 -10 -67 -59 -10 -46 -14 -50
-16 -15 -3 59 -25 57 -97 -11 -64 -59 -115 -65 -212 -26 -49 19 -62 17 -87
-13 -26 -33 -27 -32 -17 7 20 73 -34 96 -112 49 -37 -22 -58 -41 -47 -42 33
-1 -57 -48 -100 -52 -22 -2 -58 -8 -80 -14 -22 -5 -51 -11 -65 -11 -14 -1 -25
-18 -25 -38 0 -20 11 -48 25 -63 20 -21 20 -24 0 -13 -14 8 -25 5 -25 -7 0
-11 13 -21 29 -21 16 0 34 -8 40 -18 6 -10 -7 -14 -29 -8 -22 6 -40 1 -40 -12
0 -16 158 -22 550 -22 l550 0 0 55 c0 31 -7 45 -15 32 -21 -32 -156 -43 -150
-11 3 13 -5 24 -17 24 -12 0 -17 -13 -11 -30 7 -17 1 -30 -13 -30 -13 0 -46
-6 -72 -13 -29 -8 -43 -6 -36 6 6 11 -19 19 -57 19 -38 0 -69 -5 -69 -12 0 -7
-72 -12 -160 -11 -130 1 -159 7 -155 31 7 43 -121 54 -137 11 -7 -17 -21 -26
-31 -19 -10 6 -33 -1 -51 -15 -29 -24 -30 -22 -9 18 14 25 16 45 5 45 -10 0
-23 -9 -29 -20 -5 -12 -8 -10 -5 5 3 14 33 25 69 24 35 -1 63 7 63 16 0 10 9
12 20 5 11 -7 20 -2 20 10 0 12 9 17 20 10 11 -7 20 -2 20 10 0 12 9 17 20 10
10 -6 37 -2 58 9 26 14 44 14 52 1 7 -11 1 -20 -14 -21 -14 0 -9 -10 13 -23
29 -17 41 -17 47 1 9 27 64 32 64 6 0 -10 22 -13 50 -8 29 6 50 0 50 -13 0
-13 -44 -22 -115 -23 -97 -1 -107 -5 -65 -22 28 -11 82 -13 120 -5 39 8 77 13
85 11 8 -1 15 11 15 27 0 17 11 31 25 33 14 2 39 5 55 7 17 2 42 5 56 7 15 2
20 13 13 25 -10 15 18 19 88 12 68 -6 98 -2 90 11 -9 14 11 17 58 10 39 -7 80
-2 92 10 15 15 29 15 49 -2 15 -12 35 -16 44 -8 9 8 10 4 2 -10 -8 -14 -5 -25
7 -25 11 0 21 -15 21 -34 0 -26 5 -29 24 -10 19 19 19 29 0 48 -13 13 -24 33
-23 45 0 12 22 -15 49 -58 43 -70 50 -74 63 -40 29 75 56 87 107 45 27 -22 52
-30 56 -19 3 11 25 2 47 -20 38 -38 39 -42 6 -79 -46 -50 -277 -56 -305 -7
-15 28 -20 28 -42 1 -14 -16 -37 -25 -52 -19 -15 6 -44 1 -64 -11 -26 -16 69
-21 354 -20 240 2 400 10 416 23 18 15 33 14 49 -2 13 -13 53 -23 90 -23 64 0
66 2 34 34 -21 21 -60 32 -101 29 -38 -2 -68 4 -68 14 0 9 -22 13 -50 8 -32
-6 -50 -1 -50 16 0 33 -26 7 -32 -32 -3 -16 4 -24 14 -18 10 6 18 2 18 -10 0
-11 -18 -21 -39 -21 -29 0 -36 9 -27 33 8 22 5 29 -10 20 -13 -8 -34 4 -48 26
-14 23 -41 41 -61 41 -19 0 -35 9 -35 20 0 11 9 20 20 20 11 0 20 13 20 28 0
32 54 59 64 31 3 -11 51 -21 106 -23 55 -2 111 -12 125 -22 18 -14 25 -7 25
22 0 47 31 75 50 44 21 -35 116 -25 102 11 -6 18 -3 26 8 19 11 -7 20 -25 20
-41 0 -18 20 -29 50 -29 28 0 50 9 50 20 0 11 36 18 80 17 51 -2 93 9 117 31
35 31 39 31 51 1 19 -50 15 -56 -18 -29 -21 17 -30 18 -30 2 0 -12 10 -22 21
-22 12 0 16 -9 9 -20 -7 -11 1 -14 19 -8 17 7 31 21 31 31 0 11 9 14 21 7 13
-8 17 5 11 36 -9 54 9 58 82 18 24 -13 74 -24 111 -24 37 0 77 -10 88 -21 20
-20 65 -23 182 -14 54 4 56 12 10 48 -32 25 -32 26 5 14 41 -14 140 -107 114
-107 -8 0 0 -10 16 -22 23 -16 24 -24 5 -31 -41 -17 -28 -44 15 -33 22 6 35
18 29 28 -6 10 3 12 20 6 17 -7 43 -4 56 7 54 41 202 6 162 -39 -28 -30 -29
-37 -6 -32 16 3 27 -5 24 -19 -7 -37 24 -30 64 14 23 25 60 38 110 37 107 -1
161 21 161 65 0 22 9 39 20 39 11 0 20 17 20 37 0 33 16 37 140 35 138 -2 183
-20 95 -38 -25 -5 0 -9 55 -9 55 1 127 -8 160 -19 46 -16 67 -14 86 6 20 22
12 26 -46 24 -109 -4 -129 41 -22 53 28 3 46 -2 40 -12 -6 -9 4 -17 22 -17 18
0 27 9 20 20 -7 12 13 20 49 20 37 0 67 12 74 31 7 19 26 26 49 18 23 -7 52 2
71 21 27 27 36 28 50 6 12 -19 16 -20 17 -1 0 14 15 25 32 25 28 0 29 -5 6
-35 -23 -29 -20 -29 17 3 33 28 62 34 116 26 65 -11 70 -8 58 30 -9 27 -6 36
9 27 12 -7 22 -3 22 9 0 14 10 12 28 -4 24 -22 23 -28 -5 -40 -30 -12 -29 -13
2 -15 19 0 35 -10 35 -21 0 -11 9 -20 20 -20 11 0 20 19 20 41 0 23 9 36 20
29 11 -7 14 1 8 19 -7 17 -20 26 -29 21 -9 -6 -21 -3 -27 7 -13 21 83 44 120
29 14 -5 21 -21 15 -36 -14 -38 52 -47 127 -16 95 38 170 35 117 -4 -21 -16
-34 -34 -28 -40 5 -5 29 8 51 29 23 21 47 33 54 26 7 -6 12 -1 12 12 0 14 32
23 80 23 65 0 80 7 80 38 0 40 76 72 155 64 33 -4 45 6 45 35 0 61 21 103 52
103 15 0 28 10 28 22 0 12 14 17 30 11 25 -10 30 10 30 108 0 116 -2 119 -53
119 -30 0 -47 -6 -40 -14 8 -8 -6 -25 -31 -39 -31 -17 -36 -26 -16 -28 17 -1
-19 -15 -79 -31 -148 -40 -183 -70 -113 -99 l53 -21 -39 -46 c-31 -36 -47 -41
-78 -24 -44 24 -64 11 -64 -41 0 -20 14 -37 31 -37 17 0 26 -8 20 -18 -15 -25
-59 -17 -101 18 -30 25 -39 22 -73 -25 -43 -58 -97 -54 -97 7 0 30 -15 38 -68
38 -38 0 -72 11 -77 25 -12 35 -115 -14 -115 -55 0 -99 -110 -17 -116 87 -6
98 31 147 63 83 5 -12 8 -10 5 5 -3 14 -30 28 -61 32 -56 6 -56 5 -46 -85 5
-51 3 -92 -5 -92 -8 0 -12 -21 -9 -48 4 -38 -3 -45 -34 -37 -23 6 -49 -4 -64
-24 -23 -32 -27 -32 -52 -3 -30 37 -131 45 -109 9 10 -16 4 -20 -19 -11 -44
17 -93 -3 -93 -38 0 -15 -13 -29 -30 -30 -64 -6 -72 -9 -86 -31 -8 -13 -41
-26 -74 -30 -44 -5 -58 -16 -54 -42 4 -23 -7 -35 -32 -35 -20 0 -37 14 -37 30
0 17 9 30 21 30 12 0 9 9 -8 20 -40 26 -127 25 -154 -2 -14 -14 -26 -15 -34
-1 -41 66 -300 -16 -344 -109 -40 -84 -84 -100 -132 -49 -21 23 -59 41 -84 41
-50 0 -89 151 -60 227 8 23 1 33 -22 33 -22 0 -30 -11 -23 -30 31 -81 39 -235
11 -226 -15 5 -38 38 -49 73 -12 35 -28 58 -35 50 -8 -7 -14 -1 -14 15 0 15
-12 6 -26 -22 -28 -56 -94 -79 -94 -33 0 16 10 33 23 37 17 6 17 19 -1 52 -15
28 -16 44 -3 44 12 0 21 9 21 20 0 16 -56 16 -100 -1 -5 -2 -26 -2 -45 0 -19
2 -35 -6 -35 -18 0 -40 -87 -61 -114 -27 -13 16 -33 24 -45 17 -38 -24 -22
-66 28 -79 33 -8 46 -22 38 -42 -17 -45 -77 -36 -118 18 l-36 48 -36 -43 -37
-43 -46 55 c-57 69 -74 69 -75 0 0 -50 -3 -52 -27 -20 -36 47 -76 308 -61 395
10 56 8 64 -11 40 -19 -24 -21 -17 -12 34 6 36 2 70 -9 76 -10 7 -18 28 -18
46 2 28 5 27 19 -6 17 -40 17 -40 20 0 3 27 10 19 23 -26 10 -36 27 -60 38
-54 10 7 19 -4 20 -24 0 -27 8 -22 30 19 17 30 35 55 40 55 6 0 1 -18 -11 -41
-18 -32 -14 -50 17 -90 41 -52 77 -24 41 33 -15 24 -17 24 -18 0 0 -16 -5 -23
-12 -17 -6 7 -3 27 7 46 26 45 46 12 55 -92 5 -51 0 -75 -13 -67 -13 8 -12 -4
2 -30 13 -24 17 -52 11 -62 -7 -11 -3 -20 9 -20 11 0 21 10 21 21 0 48 40 -8
41 -57 2 -48 4 -49 18 -14 9 22 11 48 5 58 -6 11 4 13 23 6 44 -17 42 17 -8
98 -47 76 -64 143 -39 158 27 17 -29 109 -169 276 -130 155 -152 194 -108 194
13 0 2 18 -23 40 -38 33 -40 40 -12 40 25 0 31 11 23 38 -19 59 30 75 71 24
20 -24 43 -43 51 -41 9 1 22 -14 30 -35 8 -20 15 -26 16 -14 1 28 67 28 86 0
8 -13 15 -6 15 18 0 32 4 34 19 11 10 -16 14 -39 9 -50 -5 -12 1 -6 15 12 22
30 27 29 58 -10 28 -34 40 -37 64 -18 16 14 35 18 43 10 8 -7 9 1 2 19 -7 17
-3 38 9 45 11 7 21 6 21 -4 0 -10 14 -35 31 -56 18 -22 26 -28 19 -14 -7 15 0
25 19 25 17 0 31 -9 31 -20 0 -11 17 -20 38 -20 21 0 43 -14 50 -31 9 -25 20
-26 53 -8 104 55 -168 201 -401 215 -141 8 -158 13 -178 57 -34 76 -26 83 20
17 31 -44 40 -49 33 -19 -5 22 3 52 18 65 26 25 37 10 29 -41 -1 -8 12 -15 29
-15 17 0 26 9 19 20 -23 37 -32 124 -12 111 10 -6 23 4 28 24 5 19 10 6 12
-29 1 -35 12 -70 24 -77 15 -10 18 0 9 28 -14 43 16 61 38 24 7 -11 26 -14 42
-8 17 7 49 -5 72 -25 40 -37 41 -37 27 35 -12 61 -8 75 23 82 30 7 26 13 -21
33 -32 13 -71 39 -87 58 -17 21 -22 23 -13 4 14 -26 11 -26 -18 -3 -37 30 -47
53 -14 33 24 -15 26 30 3 66 -10 15 -31 20 -53 11 -29 -11 -34 -7 -24 21 8 20
6 29 -6 22 -11 -7 -20 2 -20 19 0 17 -13 31 -30 31 -16 0 -30 -10 -30 -22 0
-12 -14 -17 -31 -10 -18 6 -45 -2 -62 -18 -35 -35 -69 -39 -62 -7 10 44 -48
41 -59 -4 -7 -25 -39 -95 -72 -157 -33 -62 -63 -136 -66 -166 l-7 -53 55 51
c30 27 51 65 47 82 -5 27 -1 28 24 6 27 -22 22 -35 -44 -101 -41 -42 -71 -88
-66 -103 6 -18 -2 -16 -24 6 -18 18 -34 50 -36 70 -7 73 4 128 22 117 23 -15
42 44 48 156 4 67 -1 86 -21 79 -17 -7 -26 6 -26 34 0 38 5 41 30 20 25 -21
30 -18 30 18 0 23 8 42 18 42 30 0 40 -54 15 -79 -18 -18 -15 -20 12 -10 19 7
35 25 35 40 0 14 5 42 12 62 10 31 8 32 -10 7 -13 -19 -22 -21 -22 -6 0 13 9
29 20 36 12 7 10 28 -5 56 -14 24 -26 47 -28 51 -2 3 -23 -4 -47 -17 -34 -18
-53 -16 -91 9 -27 18 -49 23 -49 12 0 -11 -14 -14 -31 -8 -25 10 -28 2 -18
-40 20 -79 -17 -64 -52 22 l-31 75 -15 -57z m614 -310 c40 3 83 -5 96 -18 18
-18 7 -21 -45 -13 -46 7 -81 0 -108 -22 -22 -18 -30 -28 -17 -22 12 6 34 -2
47 -18 20 -24 19 -30 -5 -30 -41 0 -65 38 -72 110 -3 40 1 51 13 34 10 -15 48
-24 91 -21z m-674 -147 c-8 -31 -5 -34 19 -14 23 19 27 18 17 -7 -6 -17 -33
-29 -59 -28 -25 2 -43 6 -39 11 4 4 -1 23 -11 42 -16 29 -10 35 32 35 41 0 49
-8 41 -39z m607 -23 c0 -13 -9 -9 -20 7 -17 27 -28 15 -23 -24 2 -8 -10 -10
-25 -4 -17 6 -32 -4 -38 -26 -7 -28 -10 -25 -12 11 -1 31 11 50 38 57 23 6 34
20 26 33 -8 13 2 11 20 -4 19 -16 34 -38 34 -50z m-453 -481 c-7 -22 -3 -32 9
-25 24 15 49 -42 31 -71 -19 -31 -24 -196 -5 -196 23 0 33 22 47 109 6 43 18
84 24 90 7 6 8 -9 2 -34 -6 -25 -4 -45 4 -45 9 0 22 -79 30 -175 7 -96 26
-243 40 -327 36 -204 26 -253 -50 -242 -32 5 -54 16 -48 25 26 43 -37 35 -86
-10 -30 -28 -58 -42 -62 -31 -9 29 -63 25 -56 -5 4 -14 3 -18 -2 -10 -5 8 -26
15 -47 15 -21 0 -38 14 -38 30 0 18 -19 30 -47 30 -56 0 -73 179 -21 222 15
12 28 40 28 60 0 21 14 38 30 38 17 0 30 10 30 21 0 12 -11 15 -25 7 -19 -11
-20 -8 -2 12 13 13 19 37 13 52 -6 16 1 28 14 28 15 0 20 16 14 42 -15 58 5
111 28 75 13 -20 17 -16 18 15 0 61 22 73 64 34 36 -32 37 -31 19 15 -11 27
-27 47 -37 45 -10 -2 -19 16 -21 40 -2 39 -1 40 17 9 11 -19 30 -35 41 -35 12
0 15 15 7 35 -8 19 -16 46 -18 59 -2 14 -10 31 -17 38 -7 7 4 30 25 52 20 22
32 55 27 73 -9 28 -8 29 11 3 11 -16 16 -47 9 -68z m764 -891 c-7 -10 22 -22
64 -26 63 -5 69 -9 35 -24 -22 -10 -47 -28 -55 -40 -9 -13 -15 -8 -15 12 0 18
-13 38 -30 44 -34 13 -41 53 -9 53 12 0 16 -8 10 -19z m211 -172 c15 0 26 -12
22 -26 -3 -18 9 -22 40 -12 26 8 40 7 32 -1 -28 -29 -116 -28 -116 2 0 15 -9
28 -20 28 -11 0 -19 20 -19 45 2 43 3 43 17 5 9 -22 29 -40 44 -41z"/>
<path d="M2101 2780 c-24 -14 -7 -81 25 -103 10 -7 42 0 71 15 29 15 64 28 78
28 14 0 25 10 25 22 0 12 -13 17 -29 11 -17 -6 -34 -4 -40 5 -14 24 -104 39
-130 22z"/>
<path d="M745 4157 c-33 -33 -183 -44 -217 -16 -22 19 -28 18 -28 -3 0 -20 -5
-21 -24 -2 -13 13 -33 24 -44 24 -11 0 -3 -12 17 -27 26 -19 30 -31 14 -41
-13 -8 -23 -34 -23 -57 0 -42 1 -42 28 -4 16 21 24 45 19 54 -24 38 31 9 72
-38 48 -56 49 -55 -54 -13 -14 6 -25 1 -25 -10 0 -32 162 -53 180 -23 9 14 28
21 43 15 42 -14 104 57 63 73 -18 7 -27 16 -22 22 5 5 43 -4 84 -21 40 -17 85
-25 98 -17 15 9 14 2 -3 -19 -24 -29 -23 -35 8 -47 32 -13 32 -15 -3 -43 -36
-28 -36 -29 7 -18 25 5 50 3 55 -7 6 -9 30 -13 54 -8 24 4 57 -3 73 -16 24
-20 28 -20 16 0 -15 24 33 36 104 26 15 -2 24 7 19 21 -4 13 -34 27 -67 30
-36 4 -49 0 -32 -10 20 -12 15 -19 -17 -28 -31 -8 -40 -4 -32 17 5 15 2 33 -9
40 -10 6 -19 3 -19 -7 0 -10 -24 -14 -52 -8 -44 8 -48 13 -20 28 17 10 32 28
32 39 0 14 -11 13 -30 -3 -29 -24 -40 -10 -33 43 3 20 -113 62 -134 49 -11 -7
-26 -4 -33 8 -16 26 -37 25 -65 -3z"/>
<path d="M260 4110 c0 -16 -16 -30 -37 -30 -52 0 -45 -59 9 -72 25 -7 54 -6
65 0 11 7 24 1 30 -13 6 -15 10 -12 11 9 1 18 -7 39 -18 46 -11 7 -20 30 -20
51 0 22 -9 39 -20 39 -11 0 -20 -13 -20 -30z"/>
<path d="M5065 3981 c-25 -21 -38 -43 -29 -49 21 -13 104 43 104 69 0 29 -25
22 -75 -20z"/>
<path d="M48 3947 c-32 -7 -42 -24 -43 -73 -1 -59 1 -61 20 -19 20 42 131 82
169 59 9 -5 34 -2 56 7 36 15 35 16 -10 15 -27 -1 -72 3 -100 9 -27 6 -69 6
-92 2z"/>
<path d="M374 3946 c-113 -29 -173 -106 -83 -106 28 0 46 8 40 18 -6 10 16 28
49 39 33 12 60 30 60 42 0 22 -6 23 -66 7z"/>
<path d="M525 3820 c-25 -20 -38 -42 -28 -48 24 -15 90 37 81 63 -5 14 -25 8
-53 -15z"/>
<path d="M845 3817 c-12 -12 -43 -23 -69 -25 -31 -1 -48 -16 -52 -45 -8 -52
113 -7 154 58 25 39 3 48 -33 12z"/>
<path d="M0 3760 c0 -34 13 -40 85 -40 55 1 76 7 58 18 -15 9 -44 13 -65 7
-26 -6 -38 1 -38 23 0 17 -9 32 -20 32 -11 0 -20 -18 -20 -40z"/>
<path d="M1137 3786 l48 -9 -55 -28 c-38 -21 -64 -23 -91 -8 -31 16 -36 14
-26 -11 6 -16 28 -30 48 -30 20 0 42 -9 49 -20 7 -11 23 -20 36 -20 15 0 17 6
4 15 -41 31 -27 62 33 76 73 16 41 50 -43 46 -50 -2 -50 -2 -3 -11z"/>
<path d="M5849 3751 c-22 -17 -52 -30 -68 -30 -16 -1 -51 -21 -78 -46 -27 -25
-43 -34 -35 -20 10 18 -4 25 -47 25 -33 0 -59 -7 -56 -15 8 -29 -69 -137 -112
-156 -50 -22 -70 -122 -30 -156 15 -13 19 -14 10 -3 -10 12 11 28 54 40 38 11
69 25 67 31 -12 38 146 140 185 120 33 -18 41 -16 41 9 0 18 9 27 20 20 11 -7
20 3 20 21 0 29 5 30 32 8 25 -22 34 -22 47 0 9 14 29 20 44 12 15 -8 9 1 -13
20 -39 33 -39 33 15 21 52 -12 55 -9 55 58 0 79 -74 99 -151 41z"/>
<path d="M828 3689 c6 -16 -55 -21 -210 -17 -198 5 -275 -12 -183 -40 19 -6
11 -8 -18 -4 -37 4 -57 -5 -63 -27 -10 -41 53 -46 196 -17 55 11 134 27 175
36 44 8 75 7 75 -4 0 -10 14 -5 31 13 18 17 39 31 47 31 8 0 15 13 15 29 0 15
-16 27 -37 25 -20 -1 -33 -13 -28 -25z"/>
<path d="M971 3683 c-7 -21 -41 -47 -76 -58 l-65 -21 84 -2 c94 -2 194 29 178
55 -6 10 -34 13 -62 8 -40 -8 -48 -3 -38 23 7 17 7 32 1 32 -5 0 -16 -17 -22
-37z"/>
<path d="M0 3661 c0 -47 11 -55 100 -66 39 -5 52 -5 30 0 -40 10 -40 10 0 27
27 12 14 14 -40 7 l-80 -11 60 32 c33 17 45 26 26 21 -19 -5 -40 -1 -47 10
-20 33 -49 21 -49 -20z"/>
<path d="M240 3670 c-14 -17 -20 -37 -13 -44 7 -7 13 -2 13 11 0 27 73 32 83
5 4 -10 19 -5 33 10 21 23 20 28 -4 28 -16 0 -42 5 -57 11 -16 6 -40 -3 -55
-21z"/>
<path d="M1276 3659 c-3 -10 -37 -22 -76 -27 -38 -5 -92 -19 -120 -31 -46 -20
-45 -21 20 -12 225 30 261 38 255 57 -9 26 -71 36 -79 13z"/>
<path d="M5173 3587 c-7 -8 -13 -34 -13 -58 0 -36 -9 -44 -45 -37 -25 5 -31 3
-15 -4 17 -7 45 -27 64 -43 24 -21 52 -25 90 -15 l56 15 -64 18 c-65 18 -71
47 -20 112 20 27 -27 37 -53 12z"/>
<path d="M75 3528 c-32 -32 12 -58 85 -51 44 4 106 -2 140 -14 63 -22 80 -4
32 35 -18 15 -66 18 -143 9 -85 -10 -111 -7 -101 10 15 24 7 31 -13 11z"/>
<path d="M780 3503 c0 -44 221 -62 280 -22 22 14 -1 19 -80 16 -60 -2 -130 3
-155 11 -25 8 -45 6 -45 -5z"/>
<path d="M5531 3349 c-69 -70 8 -86 139 -30 55 23 57 27 20 42 -64 26 -125 21
-159 -12z"/>
<path d="M5835 3307 c-19 -6 -35 -19 -35 -30 0 -10 9 -14 21 -6 11 7 34 1 50
-12 17 -14 36 -19 43 -12 7 7 24 3 39 -9 26 -22 67 29 43 53 -15 15 -125 26
-161 16z"/>
<path d="M585 3270 c-44 -50 -10 -100 55 -80 17 5 44 0 60 -10 22 -14 23 -19
4 -20 -22 0 -22 -4 0 -26 14 -14 59 -24 100 -22 55 3 71 -3 62 -24 -5 -15 0
-28 12 -28 41 0 46 57 9 95 -55 55 -147 109 -147 85 0 -11 -26 -20 -58 -20
-48 0 -56 7 -48 40 12 46 -13 51 -49 10z"/>
<path d="M993 3250 c6 -16 20 -30 31 -30 11 0 15 -13 9 -30 -7 -16 -5 -30 4
-30 32 0 42 27 20 53 -12 15 -14 27 -4 27 20 1 -36 39 -57 40 -8 0 -10 -13 -3
-30z"/>
<path d="M5486 3132 c-30 -14 -42 -34 -37 -61 5 -23 9 -48 10 -56 2 -29 131
-4 137 27 11 57 -60 114 -110 90z"/>
<path d="M1160 3079 c0 -11 -20 -29 -45 -40 l-45 -20 46 9 c29 5 51 -2 58 -20
7 -19 25 -25 51 -16 22 7 52 14 67 16 54 8 50 30 -9 61 -70 36 -123 40 -123
10z"/>
<path d="M3080 3022 c0 -10 -28 -28 -62 -40 -59 -20 -64 -62 -7 -62 16 0 40
-18 54 -40 30 -49 66 -51 93 -5 12 19 21 24 21 10 1 -14 10 -25 20 -25 11 0
15 13 8 30 -17 45 47 59 103 22 43 -28 50 -29 50 -3 0 18 12 25 30 18 16 -6
24 -21 17 -34 -9 -17 -6 -17 12 0 29 26 12 67 -27 67 -14 0 -52 12 -84 28 -74
35 -228 58 -228 34z"/>
<path d="M4695 3028 c-7 -7 -7 -25 -1 -40 7 -18 -4 -28 -30 -28 -54 0 -104
-20 -104 -42 0 -10 14 -18 30 -18 17 0 30 9 30 20 0 11 17 20 39 20 21 0 44 9
51 20 7 11 43 20 80 20 37 0 74 10 82 23 10 16 -3 20 -40 13 -29 -6 -58 -3
-64 7 -12 20 -56 23 -73 5z"/>
<path d="M5099 3033 c-27 -64 -11 -112 32 -101 37 9 49 4 49 -20 0 -44 -8 -63
-23 -58 -7 3 -18 -8 -24 -24 -11 -28 52 -27 144 2 18 5 23 -2 16 -22 -10 -26
-5 -27 32 -8 60 31 74 48 27 31 -32 -12 -34 -9 -12 17 22 26 19 30 -22 23 -25
-4 -57 3 -69 15 -33 30 19 77 87 77 30 1 43 5 29 10 -14 4 -25 21 -25 36 0 22
-10 24 -47 7 -32 -15 -70 -15 -120 -1 -40 11 -74 18 -74 16z"/>
<path d="M700 2921 c0 -23 78 -49 96 -32 15 15 -34 50 -71 51 -14 0 -25 -8
-25 -19z"/>
<path d="M4853 2911 c-15 -40 14 -55 69 -34 l47 17 -43 23 c-55 29 -59 29 -73
-6z"/>
<path d="M1788 2885 c-32 -32 -33 -35 -2 -41 19 -4 34 -15 34 -25 0 -11 14
-19 30 -19 17 0 30 14 30 30 0 17 -10 30 -21 30 -12 0 -16 8 -10 19 22 36 -26
41 -61 6z"/>
<path d="M4647 2890 c0 -16 11 -30 25 -30 14 0 33 -13 42 -28 20 -37 118 -62
134 -35 7 11 -6 26 -28 33 -22 7 -40 22 -40 33 0 12 -14 16 -32 9 -17 -7 -41
-6 -53 1 -14 9 -8 20 16 29 34 13 32 15 -13 17 -33 0 -51 -10 -51 -29z"/>
<path d="M1420 2882 c0 -10 11 -24 25 -30 14 -6 -2 -9 -35 -6 -52 3 -61 -3
-66 -52 -4 -33 -17 -53 -30 -48 -13 5 -21 21 -17 37 3 15 0 20 -8 12 -9 -8
-26 -6 -40 6 -13 11 -62 24 -108 28 -46 5 -95 17 -108 27 -25 21 -101 0 -122
-34 -8 -13 -1 -17 17 -10 22 8 27 0 19 -35 -7 -32 -5 -39 8 -22 21 31 153 16
215 -24 23 -14 77 -31 120 -37 44 -5 105 -14 135 -19 45 -8 51 -4 33 17 -30
37 -9 112 41 143 33 20 38 20 28 -5 -8 -21 2 -30 32 -30 24 0 38 9 31 20 -7
11 6 20 29 20 50 0 53 -31 6 -58 -19 -12 -24 -21 -11 -21 13 -1 30 9 37 20 7
12 25 17 40 11 36 -13 51 12 29 47 -9 16 -46 26 -87 25 -39 -2 -77 6 -83 17
-16 24 -130 25 -130 1z"/>
<path d="M52 2797 c5 -8 -7 -18 -27 -22 -19 -5 68 -5 194 0 126 4 243 16 260
26 20 12 -53 17 -202 14 -128 -3 -229 -11 -225 -18z"/>
<path d="M4045 2787 c-14 -6 -25 -19 -25 -29 0 -25 75 -23 91 3 7 12 26 17 42
11 16 -7 24 -3 17 8 -13 21 -81 24 -125 7z"/>
<path d="M697 2775 c-1 -3 -4 -30 -6 -60 l-3 -55 48 55 c26 30 41 44 34 30 -7
-14 -3 -25 9 -25 11 0 21 14 21 30 0 24 -91 47 -103 25z"/>
<path d="M4244 2738 c-57 -21 -56 -51 1 -70 73 -23 155 -23 155 0 0 39 -108
87 -156 70z"/>
<path d="M2882 2721 c-22 -13 -19 -21 13 -38 32 -18 46 -15 67 12 15 19 19 28
9 20 -9 -8 -27 -6 -40 4 -12 10 -34 11 -49 2z"/>
<path d="M1520 2630 c0 -19 17 -28 50 -25 57 4 65 25 18 43 -50 19 -68 14 -68
-18z"/>
<path d="M4109 2500 c0 -32 15 -38 95 -37 53 1 91 8 86 18 -6 9 4 25 21 35 22
12 -4 18 -85 19 -102 2 -117 -3 -117 -35z"/>
<path d="M5680 2480 c33 -21 28 -24 -58 -27 -117 -6 -75 -23 60 -26 103 -1
138 5 138 25 0 16 -12 22 -30 15 -16 -6 -30 -1 -30 11 0 12 -25 22 -55 22 -43
-1 -48 -5 -25 -20z"/>
<path d="M5905 2425 c-44 -15 -27 -60 27 -74 62 -15 85 0 52 33 -19 19 -24 17
-26 -5 -1 -16 -8 -10 -15 13 -7 23 -24 38 -38 33z"/>
<path d="M5375 2406 c-20 -5 -31 -16 -26 -25 12 -19 108 -3 122 21 12 19 -34
20 -96 4z"/>
<path d="M4780 2367 c0 -40 48 -63 95 -45 61 23 57 37 -10 29 -30 -3 -62 4
-70 17 -11 16 -14 16 -15 -1z"/>
<path d="M5914 2251 c-31 -23 -31 -28 9 -63 43 -38 43 -38 32 7 -6 25 -4 45 5
45 10 0 21 -16 26 -35 7 -28 10 -26 12 8 3 53 -38 71 -84 38z"/>
<path d="M2736 2195 c10 -37 14 -38 20 -10 5 27 19 32 58 22 37 -9 48 -6 38
10 -29 47 -130 28 -116 -22z"/>
<path d="M3986 2151 c-13 -15 -18 -33 -10 -40 7 -7 2 -20 -11 -28 -15 -9 -16
-24 -4 -44 12 -19 18 -21 19 -4 0 14 14 25 32 25 20 0 28 11 21 30 -6 16 -5
29 3 27 38 -5 44 6 17 33 -36 36 -37 36 -67 1z"/>
<path d="M4701 2121 c-16 -10 -36 -14 -45 -8 -9 5 -16 0 -16 -11 0 -31 36 -45
47 -17 6 16 10 13 11 -8 2 -31 79 -66 100 -45 6 5 -9 15 -32 21 -29 7 -41 23
-36 49 9 44 9 43 -29 19z"/>
<path d="M4954 2105 c-29 -7 -31 -14 -13 -37 30 -36 52 -36 66 1 13 35 -4 47
-53 36z"/>
<path d="M5085 2098 c20 -11 31 -28 26 -37 -6 -9 3 -22 19 -28 36 -14 40 29 6
63 -13 13 -38 24 -55 23 -25 0 -24 -4 4 -21z"/>
<path d="M2889 2064 c3 -19 -3 -45 -14 -59 -15 -19 -8 -25 28 -25 26 0 58 18
72 39 20 33 20 38 -5 28 -17 -6 -30 -2 -30 9 0 11 -13 25 -28 30 -18 7 -26 -1
-23 -22z"/>
<path d="M3193 2050 c-7 -17 3 -22 32 -15 31 9 37 5 25 -17 -9 -15 -10 -22 -2
-15 8 7 44 5 81 -3 54 -12 66 -9 57 12 -6 16 1 28 16 28 21 0 21 5 1 25 -16
16 -29 18 -39 4 -12 -18 -56 -23 -84 -11 -38 18 -79 14 -87 -8z"/>
<path d="M4120 2064 c0 -8 -17 -17 -39 -18 -47 -4 -141 -63 -141 -90 0 -10 31
-16 70 -13 38 3 80 -5 94 -19 13 -13 54 -24 91 -24 37 0 63 -7 58 -15 -5 -8
47 -15 115 -15 106 0 121 4 97 27 -15 15 -32 22 -39 16 -7 -7 -24 -3 -39 10
-15 12 -28 14 -29 4 -1 -9 -8 6 -16 33 -20 72 -96 79 -121 11 -11 -28 -25 -51
-30 -51 -6 0 -2 21 7 46 12 29 10 56 -5 75 -26 32 -73 48 -73 23z"/>
<path d="M5685 2067 c-35 -14 -31 -47 5 -47 36 0 40 -33 5 -46 -14 -5 -19 -15
-11 -24 30 -32 79 47 56 90 -12 22 -23 39 -26 38 -2 0 -15 -6 -29 -11z"/>
<path d="M5791 2061 c-6 -10 -2 -24 10 -31 14 -9 15 -21 0 -38 -15 -18 -12
-25 8 -25 16 0 25 7 19 16 -6 10 6 17 27 17 20 0 48 11 61 24 14 14 24 16 24
3 0 -11 14 -20 30 -20 17 0 30 7 30 16 0 10 -13 17 -28 17 -16 0 -33 11 -39
25 -7 19 -15 18 -31 -5 -15 -20 -21 -22 -22 -5 0 29 -72 34 -89 6z"/>
<path d="M2352 2028 c-18 -48 -18 -48 79 -48 94 0 128 60 44 76 -26 5 -32 -3
-23 -30 10 -34 10 -34 -11 -1 -29 44 -73 45 -89 3z"/>
<path d="M2151 2022 c-11 -18 52 -41 115 -42 33 0 34 3 7 30 -33 33 -104 40
-122 12z"/>
<path d="M5278 2029 c-2 -10 -2 -26 0 -34 1 -8 -11 -15 -28 -15 -16 0 -30 -9
-30 -20 0 -28 23 -24 69 11 30 23 33 35 15 53 -13 13 -25 15 -26 5z"/>
<path d="M3580 2004 c0 -11 14 -25 32 -32 49 -19 128 -14 128 8 0 11 -20 18
-45 17 -25 -1 -61 4 -80 12 -20 9 -35 7 -35 -5z"/>
<path d="M4987 2006 c-25 -9 -12 -89 19 -109 50 -33 184 62 142 101 -8 7 -18
0 -23 -14 -7 -19 -16 -17 -36 10 -20 25 -28 28 -28 9 -1 -20 -9 -22 -26 -8
-14 11 -35 16 -48 11z"/>
<path d="M5524 1961 c3 -43 16 -60 50 -67 60 -11 58 20 -4 78 l-51 47 5 -58z"/>
<path d="M3025 1970 c8 -9 4 -29 -8 -44 -31 -37 -11 -52 78 -54 76 -2 109 36
35 40 -80 5 -92 8 -81 27 6 10 0 25 -14 33 -14 8 -18 7 -10 -2z"/>
<path d="M4604 1971 c22 -25 -21 -91 -60 -92 -29 0 -29 -3 -4 -17 52 -30 188
-43 250 -25 l60 18 -50 20 c-28 11 -53 12 -57 3 -3 -10 -19 -18 -34 -18 -17 0
-23 12 -15 32 10 26 3 30 -31 19 -33 -10 -40 -7 -32 16 7 16 0 36 -15 44 -14
9 -20 8 -12 0z"/>
<path d="M4840 1918 c-25 -19 -25 -20 4 -11 19 6 40 3 47 -8 6 -10 2 -19 -10
-19 -11 0 -21 -8 -21 -17 0 -10 20 -15 45 -13 25 3 59 6 75 8 26 2 26 5 1 21
-16 10 -36 14 -45 8 -9 -5 -22 5 -28 22 -14 36 -27 38 -68 9z"/>
<path d="M3749 1898 c-6 -10 12 -18 39 -18 28 0 114 -11 190 -24 102 -17 151
-18 185 -2 40 19 30 21 -58 16 -58 -4 -105 0 -105 8 0 18 -14 20 -145 30 -53
4 -100 -1 -106 -10z"/>
<path d="M2094 1858 c-19 -11 -63 -21 -96 -22 -33 -1 -52 -8 -41 -14 11 -7 63
-9 117 -4 53 4 85 12 71 17 -14 4 -20 17 -14 27 14 23 8 22 -37 -4z"/>
<path d="M3366 1802 c-4 -57 -2 -59 55 -39 61 22 81 43 30 33 -16 -3 -41 10
-55 29 -24 32 -26 30 -30 -23z"/>
<path d="M3680 1842 c0 -8 -27 -11 -60 -6 -35 5 -60 0 -60 -13 0 -12 -28 -50
-61 -84 -34 -35 -70 -85 -80 -111 -10 -27 -25 -47 -34 -45 -56 12 -112 -70
-73 -108 18 -18 88 50 74 72 -8 12 1 15 21 7 32 -12 35 -7 41 71 3 33 51 84
106 113 25 12 42 34 39 47 -4 14 -3 18 2 10 13 -23 69 -17 122 13 47 26 47 26
5 37 -23 6 -42 5 -42 -3z"/>
<path d="M5085 1815 c7 -22 28 -24 125 -17 65 5 25 34 -51 37 -55 2 -79 -5
-74 -20z"/>
<path d="M5920 1794 c29 -15 48 -40 44 -60 -3 -19 4 -34 15 -34 12 0 21 27 21
60 0 54 -6 60 -65 60 l-65 -1 50 -25z"/>
<path d="M2500 1783 c0 -12 -11 -19 -25 -16 -14 4 -18 3 -10 -2 8 -5 11 -16 5
-24 -5 -9 13 -16 40 -16 57 0 64 19 20 55 -20 16 -30 17 -30 3z"/>
<path d="M3725 1761 l-44 -37 67 -12 c73 -14 143 -72 87 -72 -17 0 -40 -12
-53 -27 -18 -22 -9 -26 50 -22 103 8 127 39 71 90 -24 23 -38 51 -31 62 35 57
-83 72 -147 18z"/>
<path d="M4400 1780 c1 -27 40 -67 52 -55 8 8 24 7 36 -2 12 -9 44 -5 72 10
l50 26 -50 1 c-32 0 -41 6 -25 16 14 9 -10 16 -55 15 -44 -1 -80 -5 -80 -11z"/>
<path d="M5237 1755 c-22 -42 -21 -43 14 -15 21 18 30 20 22 5 -25 -40 40 -52
91 -17 l45 32 -55 0 c-29 0 -54 9 -54 20 0 36 -38 21 -63 -25z"/>
<path d="M5540 1757 c0 -8 11 -18 25 -23 14 -6 -11 -10 -55 -9 -126 1 -153 -4
-140 -26 8 -12 42 -15 84 -7 51 10 68 7 58 -9 -9 -15 -2 -18 20 -9 26 10 30 6
17 -16 -13 -22 -11 -23 12 -6 44 33 99 49 99 29 0 -10 -16 -22 -35 -26 -19 -5
3 -8 50 -7 84 2 124 32 43 32 -33 0 -38 6 -21 26 18 22 10 25 -40 18 -45 -7
-59 -3 -48 15 8 13 30 18 47 11 18 -7 26 -5 17 4 -20 19 -133 22 -133 3z"/>
<path d="M5754 1747 c-32 -32 -9 -47 67 -44 47 2 77 12 73 25 -10 29 -94 33
-94 4 0 -14 -7 -13 -17 3 -9 14 -22 19 -29 12z"/>
<path d="M1830 1700 c-56 -14 -55 -15 25 -18 47 -1 85 7 85 18 0 22 -22 22
-110 0z"/>
<path d="M2665 1668 c1 -34 -5 -72 -12 -83 -20 -33 7 -84 39 -72 17 7 28 -1
28 -21 0 -18 -10 -30 -22 -27 -13 3 -27 -7 -33 -22 -8 -21 -1 -22 32 -5 59 32
67 55 32 90 -17 18 -26 40 -20 51 7 10 -1 49 -16 85 l-28 66 0 -62z"/>
<path d="M4960 1680 c0 -11 2 -22 3 -25 2 -3 -7 -25 -19 -48 -18 -34 -18 -46
1 -54 17 -7 15 -10 -5 -12 -18 -1 -10 -12 20 -28 32 -16 55 -18 63 -6 16 24
82 -23 67 -47 -5 -9 4 -21 22 -28 44 -17 52 -15 38 8 -7 11 4 21 24 22 20 0
54 5 76 10 22 5 70 10 107 10 46 2 61 8 46 23 -30 30 -188 31 -225 0 -27 -22
-37 -20 -60 9 -25 32 -24 34 3 16 17 -11 14 -5 -6 14 -21 19 -51 28 -69 22
-20 -8 -28 -5 -19 9 7 11 -1 26 -18 33 -21 8 -27 25 -19 52 7 23 4 40 -9 40
-11 0 -21 -9 -21 -20z"/>
<path d="M5040 1668 c0 -22 12 -27 43 -17 28 9 38 6 28 -9 -8 -13 -1 -17 18
-10 17 7 31 22 31 33 0 12 -5 16 -12 10 -7 -7 -34 -4 -60 6 -38 14 -48 11 -48
-13z"/>
<path d="M4755 1645 c5 -14 22 -25 38 -25 16 0 24 -8 18 -18 -12 -20 67 -46
92 -30 40 24 17 71 -28 56 -38 -12 -41 -9 -20 16 21 25 15 29 -43 28 -45 -1
-64 -10 -57 -27z"/>
<path d="M5795 1602 c-13 -47 45 -111 60 -66 7 20 15 20 37 2 34 -28 49 -17
53 38 2 23 10 37 17 33 8 -5 10 -26 4 -47 -5 -21 0 -44 12 -51 14 -9 22 12 22
60 0 67 -4 72 -45 60 -72 -22 -124 -24 -137 -5 -7 10 -17 -1 -23 -24z"/>
<path d="M3088 1550 c-7 -27 -19 -45 -28 -40 -9 5 -21 -4 -28 -21 -6 -18 -3
-26 8 -19 11 7 20 4 20 -6 0 -10 22 -14 50 -9 27 5 45 18 38 28 -6 10 -21 12
-33 4 -14 -9 -17 7 -9 50 15 74 0 85 -18 13z"/>
<path d="M3197 1576 c-21 -15 -21 -21 -2 -29 14 -6 25 -28 25 -50 0 -22 8 -34
18 -28 10 6 22 4 27 -4 5 -8 5 -3 2 11 -4 15 2 43 13 63 22 43 -37 69 -83 37z"/>
<path d="M3533 1543 c-40 -43 -44 -77 -6 -46 15 13 31 18 37 12 6 -6 16 3 23
19 17 46 -17 56 -54 15z"/>
<path d="M3826 1479 c1 -20 10 -32 19 -26 9 6 29 0 44 -12 22 -19 26 -16 18
16 -14 53 -85 72 -81 22z"/>
<path d="M1900 1463 c0 -23 -11 -41 -24 -38 -13 3 -26 -13 -29 -35 -4 -22 -1
-29 5 -15 6 14 19 20 29 14 21 -12 50 87 31 105 -6 7 -12 -7 -12 -31z"/>
<path d="M2940 1431 c0 -41 41 -61 61 -29 10 16 7 33 -7 42 -36 23 -54 19 -54
-13z"/>
<path d="M5660 1439 c-38 -8 -54 -15 -34 -16 20 -2 32 -10 26 -20 -6 -9 1 -17
14 -18 13 -1 44 -8 69 -16 36 -11 45 -6 45 27 0 49 -30 60 -120 43z"/>
<path d="M2060 1419 c0 -11 -11 -19 -25 -18 -56 8 -75 -3 -75 -44 0 -42 1 -42
40 -7 22 20 40 30 40 22 0 -7 18 -4 41 8 22 12 35 31 28 41 -15 25 -49 24 -49
-2z"/>
<path d="M1660 1398 c0 -12 -13 -17 -30 -11 -58 22 -29 -3 50 -45 44 -23 80
-33 80 -22 0 11 -13 20 -30 20 -17 0 -30 18 -30 40 0 22 -9 40 -20 40 -11 0
-20 -10 -20 -22z"/>
<path d="M2750 1399 c-16 -25 11 -119 33 -119 10 0 16 15 13 33 -3 18 7 37 22
43 21 7 24 0 13 -28 -9 -21 -16 -49 -17 -63 -1 -25 -21 -33 -69 -26 -14 1 -25
-7 -25 -19 0 -12 9 -17 20 -10 13 8 16 -14 9 -59 -13 -83 40 -105 56 -23 6 35
1 45 -18 38 -18 -7 -23 0 -16 21 16 41 75 17 63 -26 -5 -20 3 -34 20 -34 15 0
23 12 17 26 -5 15 -4 43 4 62 11 30 15 27 27 -15 l14 -50 2 54 c4 108 -128
261 -168 195z"/>
<path d="M3440 1405 c0 -30 51 -67 70 -50 9 8 10 3 1 -11 -11 -20 -21 -21 -43
-3 -15 13 -28 16 -28 6 0 -34 82 -89 116 -78 40 12 100 -20 77 -42 -8 -9 -22
-5 -31 9 -11 19 -24 15 -52 -16 -20 -22 -46 -40 -58 -40 -12 0 -9 9 7 19 40
25 23 38 -67 50 -62 8 -74 4 -64 -21 7 -17 12 -35 12 -39 0 -4 14 -2 31 4 17
7 48 -4 70 -24 38 -34 41 -34 69 3 17 23 29 28 29 12 1 -14 17 -23 36 -20 24
4 34 -6 32 -33 -3 -29 14 -20 70 40 41 44 72 85 69 92 -3 7 14 8 39 2 57 -16
113 -83 114 -139 1 -46 27 -74 48 -52 7 7 3 24 -9 39 -13 15 -17 41 -10 58 7
20 3 26 -11 17 -16 -10 -19 2 -9 41 9 35 6 50 -7 41 -12 -7 -21 0 -21 16 0 18
-20 28 -54 26 -41 -1 -62 12 -82 53 -29 60 -59 71 -76 26 -6 -16 -24 -24 -40
-18 -15 6 -28 1 -28 -11 0 -12 18 -22 40 -22 22 0 40 9 40 20 0 57 34 9 36
-51 2 -48 -4 -66 -20 -57 -13 9 -17 5 -8 -9 8 -13 5 -23 -7 -23 -11 0 -22 -16
-22 -35 -2 -30 -4 -29 -18 5 -8 22 -9 45 0 50 31 21 -34 60 -101 60 -49 0 -52
37 -5 72 33 24 32 26 -5 25 -22 0 -60 6 -85 14 -26 8 -45 5 -45 -6z"/>
<path d="M3822 1392 c-18 -21 -16 -30 9 -40 47 -17 49 -16 49 28 0 46 -25 52
-58 12z"/>
<path d="M1426 1325 c0 -47 7 -85 16 -85 8 0 21 -19 28 -42 13 -40 15 -40 49
-5 20 21 32 44 27 52 -4 8 1 15 14 15 15 0 15 11 1 39 -12 21 -15 53 -8 72 9
24 5 32 -14 25 -15 -5 -34 -31 -41 -57 -8 -27 -15 -37 -16 -23 -1 15 -10 21
-21 15 -10 -6 -22 9 -27 34 -5 25 -8 7 -8 -40z"/>
<path d="M1923 1376 c-2 -21 -24 -36 -58 -40 -30 -3 -53 -14 -51 -25 6 -24 66
-33 66 -9 0 10 10 18 21 18 12 0 15 -11 7 -25 -10 -19 -8 -19 11 -2 13 12 20
44 15 70 -5 26 -10 32 -11 13z"/>
<path d="M5415 1386 c-108 -17 -54 -48 74 -44 72 2 124 12 118 22 -6 11 -24
14 -39 8 -15 -6 -28 -2 -28 9 0 19 -23 20 -125 5z"/>
<path d="M1160 1347 c0 -24 -11 -48 -25 -53 -17 -6 -12 -22 18 -50 l43 -42 11
41 c10 41 67 41 58 0 -2 -12 9 -16 25 -10 17 6 30 24 30 40 0 16 -8 24 -18 18
-10 -6 -24 13 -31 43 -10 41 -18 47 -31 26 -10 -15 -13 -38 -7 -49 6 -12 -8 2
-31 29 -40 49 -41 49 -42 7z"/>
<path d="M2223 1300 c-13 -36 -13 -60 -2 -60 10 0 17 -10 14 -22 -11 -48 65
-34 77 14 7 26 20 48 30 48 10 0 7 18 -7 40 -36 59 -88 49 -112 -20z"/>
<path d="M2626 1346 c21 -5 32 -21 26 -37 -5 -15 -2 -33 9 -40 10 -6 19 -20
19 -31 0 -11 -7 -16 -16 -10 -50 30 -104 -167 -62 -228 16 -23 17 -18 7 18
-10 34 -7 43 11 32 18 -11 21 6 10 70 -11 65 -8 83 11 76 14 -4 27 -28 29 -52
7 -91 24 -60 24 42 0 59 5 117 12 128 13 20 -50 48 -96 43 -11 -1 -4 -6 16
-11z"/>
<path d="M740 1306 c0 -24 -13 -57 -30 -73 -16 -17 -30 -40 -30 -53 0 -14 12
-11 30 7 17 17 30 40 30 53 0 12 9 17 20 10 25 -16 25 31 0 70 -16 24 -19 22
-20 -14z"/>
<path d="M904 1298 c-36 -57 -17 -69 70 -42 57 18 78 17 90 -2 8 -13 15 -15
15 -4 0 62 -117 96 -121 35 -1 -25 -6 -21 -15 10 l-13 46 -26 -43z"/>
<path d="M2105 1317 c-14 -14 -25 -43 -25 -66 1 -34 4 -36 20 -11 16 24 19 21
20 -15 0 -61 53 -57 65 5 6 32 0 50 -16 50 -14 0 -29 14 -33 31 -5 25 -11 26
-31 6z"/>
<path d="M2488 1296 c-9 -13 -5 -17 9 -8 14 9 23 2 23 -17 0 -17 10 -31 23
-31 15 0 18 -25 10 -75 -8 -51 -6 -66 7 -45 11 17 20 53 20 81 0 28 9 62 20
75 11 13 15 20 8 15 -7 -5 -33 0 -59 10 -32 11 -52 10 -61 -5z"/>
<path d="M2401 1281 c-19 -12 -22 -33 -10 -74 l16 -57 9 50 c4 28 17 56 28 63
12 7 13 17 2 23 -10 6 -30 4 -45 -5z"/>
<path d="M5656 1277 c-17 -45 4 -73 45 -63 25 7 39 1 39 -18 0 -20 20 -27 69
-23 55 4 67 -1 57 -26 -9 -23 0 -29 36 -24 27 4 48 -3 48 -17 0 -13 11 -35 25
-49 20 -20 25 -10 25 50 0 67 -5 74 -41 63 -27 -9 -53 -1 -75 23 -19 20 -44
39 -56 41 -13 2 -48 9 -79 14 -31 6 -62 21 -70 33 -9 16 -16 14 -23 -4z"/>
<path d="M1645 1215 c-2 -26 7 -35 27 -27 17 6 25 3 19 -7 -7 -10 -4 -23 5
-28 9 -6 26 17 39 50 19 51 19 57 -6 36 -16 -13 -29 -15 -29 -5 0 37 -52 19
-55 -19z"/>
<path d="M1951 1207 c-9 -26 -18 -28 -36 -10 -31 31 -48 29 -63 -8 -6 -18 -3
-26 8 -19 11 7 20 3 20 -8 0 -11 -15 -28 -33 -38 -18 -10 -26 -29 -19 -41 20
-32 86 5 102 57 7 22 26 40 41 40 32 0 39 31 11 49 -10 6 -24 -4 -31 -22z"/>
<path d="M320 1183 c0 -53 -21 -105 -38 -94 -8 5 -15 -23 -16 -61 l-2 -70 41
84 c40 79 43 81 59 38 27 -74 42 -30 17 48 -28 82 -61 113 -61 55z"/>
<path d="M2478 1200 c-9 -68 -5 -87 18 -92 14 -3 17 -1 7 4 -10 6 -14 27 -9
49 6 21 19 34 28 28 10 -6 18 -2 18 10 0 27 -59 28 -62 1z"/>
<path d="M1020 1163 c0 -51 40 -143 63 -143 9 0 5 24 -8 53 -19 43 -19 56 0
62 14 5 25 18 25 30 0 12 -6 16 -13 9 -7 -8 -25 -4 -40 9 -21 17 -27 13 -27
-20z"/>
<path d="M3800 1168 c0 -27 -5 -28 -30 -8 -17 14 -30 16 -30 5 0 -30 57 -47
72 -22 9 15 20 11 32 -10 10 -18 31 -33 46 -33 19 0 13 16 -18 50 -54 58 -72
63 -72 18z"/>
<path d="M432 1132 c-7 -31 -9 -62 -3 -68 6 -6 11 4 11 23 0 55 37 37 44 -22
6 -48 9 -45 18 21 7 55 3 73 -15 66 -13 -5 -28 1 -32 14 -5 13 -15 -2 -23 -34z"/>
<path d="M820 1155 c0 -19 10 -35 21 -35 12 0 16 -8 10 -19 -6 -10 -1 -25 12
-33 15 -9 18 -5 7 12 -11 17 -8 21 7 12 13 -8 23 -37 23 -65 0 -45 3 -47 31
-18 40 39 57 40 42 1 -7 -16 -3 -30 8 -30 10 0 19 28 19 61 0 40 -8 57 -22 48
-12 -8 -29 -3 -37 10 -8 13 -31 26 -50 29 -19 3 -42 18 -52 33 -15 24 -18 23
-19 -6z"/>
<path d="M3140 1160 c0 -11 11 -18 25 -15 14 3 24 -11 22 -31 -2 -28 3 -31 25
-12 45 37 33 78 -22 78 -27 0 -50 -9 -50 -20z"/>
<path d="M5670 1142 c33 -7 58 -21 55 -32 -3 -11 6 -20 20 -20 14 0 30 -5 35
-12 6 -6 37 -17 70 -24 59 -13 59 -12 10 11 -27 13 -54 29 -60 34 -28 30 -105
61 -145 59 -35 -2 -32 -6 15 -16z"/>
<path d="M1158 1109 c0 -21 -6 -28 -11 -14 -6 14 -25 24 -44 23 -19 -1 -23 -5
-9 -11 16 -6 21 -38 14 -93 -8 -62 -5 -76 11 -54 11 17 21 20 21 7 0 -12 17
-27 38 -32 35 -9 38 -1 33 79 -6 92 -50 171 -53 95z"/>
<path d="M1247 1115 c7 -42 35 -76 53 -65 9 6 21 -5 26 -25 6 -22 10 -15 12
19 1 29 -8 60 -21 68 -15 9 -18 5 -9 -14 8 -15 2 -12 -14 7 -33 41 -52 45 -47
10z"/>
<path d="M680 1070 c-2 -53 -5 -56 -22 -20 -16 34 -17 32 -11 -15 4 -31 -2
-55 -15 -55 -56 -1 -80 -35 -47 -68 28 -28 36 -28 61 -3 16 16 35 24 42 17 6
-7 12 2 12 19 0 17 10 35 22 39 15 5 12 29 -9 77 l-30 69 -3 -60z"/>
<path d="M3143 1095 c-2 -19 -13 -35 -24 -35 -12 0 -15 11 -6 25 12 20 8 20
-15 1 -17 -13 -48 -20 -71 -14 -32 9 -40 2 -37 -33 3 -44 70 -101 70 -60 0 12
-9 21 -20 21 -11 0 -19 16 -18 35 1 21 5 25 11 10 6 -14 24 -25 40 -25 16 0
24 9 17 20 -7 11 -8 20 -2 20 6 0 21 -19 34 -43 19 -37 18 -41 -11 -30 -19 7
-28 4 -21 -7 19 -31 46 -24 93 23 30 30 34 40 12 32 -24 -10 -35 1 -41 41 -4
30 -9 38 -11 19z"/>
<path d="M3312 1105 c-26 -26 -9 -39 37 -30 41 8 48 2 42 -29 -4 -22 3 -39 17
-39 13 0 23 16 23 36 0 36 -96 86 -119 62z"/>
<path d="M1620 1050 c0 -27 -11 -50 -25 -50 -17 -1 -16 -7 4 -19 37 -23 36
-24 50 55 7 37 3 64 -9 64 -11 0 -20 -22 -20 -50z"/>
<path d="M1680 1074 c1 -71 77 -87 101 -22 13 36 8 42 -43 44 -32 1 -58 -9
-58 -22z"/>
<path d="M2020 1071 c0 -16 9 -34 20 -41 11 -7 20 -30 20 -52 0 -22 -9 -35
-20 -28 -11 7 -21 -4 -22 -24 -1 -20 -4 -60 -7 -90 -3 -30 3 -50 12 -44 9 6
17 37 17 69 0 58 33 72 65 29 9 -13 15 -11 15 4 0 13 -8 29 -18 35 -10 6 -25
47 -32 91 -13 75 -50 114 -50 51z"/>
<path d="M223 1037 c-1 -30 -12 -57 -24 -61 -14 -4 -15 -23 -2 -56 26 -68 49
-13 38 93 -5 50 -9 58 -12 24z"/>
<path d="M1488 1051 c-13 -33 6 -104 23 -87 6 6 14 30 18 53 10 50 -24 79 -41
34z"/>
<path d="M2240 1051 c0 -17 -9 -31 -20 -31 -11 0 -20 -20 -20 -45 -1 -36 -4
-39 -20 -15 -16 24 -19 21 -20 -16 0 -27 9 -41 20 -34 12 7 20 6 18 -4 -10
-60 4 -95 24 -60 11 19 18 60 15 90 -4 35 2 52 18 49 30 -6 34 67 5 85 -11 7
-20 -2 -20 -19z"/>
<path d="M2465 1052 c26 -26 30 -44 15 -72 -33 -62 -25 -93 14 -55 39 40 18
134 -34 152 -22 7 -21 1 5 -25z"/>
<path d="M3540 1031 c0 -29 -7 -49 -16 -44 -8 6 -16 -5 -18 -23 -1 -19 -7 -54
-13 -79 -6 -28 -1 -45 13 -45 15 0 13 -9 -6 -22 -24 -17 -21 -20 15 -12 48 11
80 -15 45 -36 -11 -7 -16 -20 -10 -29 15 -25 -32 -37 -126 -32 -48 2 -74 -3
-59 -12 14 -9 48 -17 75 -18 45 -2 46 -3 10 -18 -22 -8 -53 -11 -68 -5 -17 7
-23 2 -15 -11 8 -12 3 -29 -10 -37 -14 -8 -18 -6 -10 7 7 11 -10 42 -39 68
-28 26 -69 65 -91 87 -30 31 -37 32 -27 7 7 -18 3 -39 -9 -46 -11 -7 -21 1
-21 18 0 36 -31 41 -52 8 -9 -14 -5 -18 9 -9 14 9 23 1 23 -19 0 -26 12 -30
52 -20 62 15 108 -17 98 -69 -5 -26 10 -43 53 -58 33 -12 54 -30 47 -42 -7
-11 -21 -15 -31 -9 -11 6 -19 1 -19 -12 0 -13 14 -18 30 -12 17 7 30 3 30 -8
0 -10 -29 -20 -65 -21 l-65 -1 55 -20 c30 -11 51 -28 45 -37 -6 -10 0 -24 13
-32 16 -10 20 -1 12 30 -8 29 -2 48 18 56 16 6 24 25 18 41 -8 20 -2 26 19 18
16 -6 28 -5 26 3 -3 8 8 37 23 64 15 28 26 52 24 55 -13 20 4 44 40 56 33 10
36 17 15 31 -20 12 -13 17 25 18 30 0 57 10 61 22 4 12 36 23 71 26 51 3 59
-1 41 -22 -17 -21 -14 -24 11 -14 41 15 42 36 1 69 -24 21 -34 21 -46 2 -12
-19 -21 -18 -41 5 -22 27 -28 27 -54 1 -32 -32 -76 -40 -58 -11 6 10 -8 13
-32 7 -37 -10 -41 -6 -27 27 9 21 20 67 25 103 5 36 18 65 28 65 11 0 14 -8 8
-18 -6 -10 3 -23 21 -30 44 -17 52 -15 38 8 -7 11 2 20 19 20 17 0 31 9 31 20
0 11 -16 20 -35 20 -19 0 -55 6 -80 13 -38 10 -45 4 -45 -42z"/>
<path d="M3802 995 c0 -25 6 -34 11 -20 6 14 20 25 31 25 11 0 5 -25 -15 -55
-35 -54 -35 -55 5 -20 21 19 45 30 51 23 7 -7 7 8 0 33 -8 34 -5 41 15 29 17
-11 21 -8 12 7 -28 44 -112 28 -110 -22z"/>
<path d="M2371 979 c-29 -30 -42 -33 -54 -14 -12 18 -16 16 -17 -8 0 -45 55
-63 66 -21 5 19 10 -13 12 -71 1 -58 -5 -105 -14 -105 -8 0 -17 -22 -19 -50
-3 -27 5 -50 16 -50 12 0 16 -9 9 -20 -7 -11 -2 -20 10 -20 40 0 8 -50 -32
-51 -21 0 -36 -11 -33 -24 2 -13 -8 -19 -22 -13 -29 11 -21 108 9 108 10 0 18
8 18 17 0 53 -60 9 -61 -45 l-2 -62 -21 50 c-12 29 -24 40 -30 25 -5 -13 12
-54 37 -90 26 -36 45 -67 42 -70 -3 -3 0 -5 5 -5 6 0 20 0 31 0 12 0 16 9 9
20 -16 25 35 18 53 -8 25 -34 58 8 37 48 -39 73 12 128 63 66 24 -29 23 -32
-8 -20 -19 7 -35 4 -35 -7 0 -10 18 -19 40 -19 47 0 52 25 10 60 -32 27 -43
110 -12 91 11 -6 23 4 28 24 6 22 10 15 12 -19 1 -40 10 -52 32 -43 16 6 25
19 19 29 -14 22 16 24 42 3 10 -9 17 -12 14 -7 -2 4 3 18 12 30 9 12 6 43 -8
68 -23 45 -24 45 -35 5 -5 -23 -26 -41 -44 -41 -22 0 -30 11 -23 30 7 17 3 30
-8 30 -10 0 -19 -13 -19 -30 0 -19 -19 -30 -50 -30 -31 0 -50 -11 -50 -30 0
-16 -10 -30 -22 -30 -14 0 -16 13 -7 35 9 19 20 80 24 135 5 55 17 109 27 119
53 56 4 65 -51 10z"/>
<path d="M2739 1001 c17 -10 24 -25 16 -33 -7 -7 -3 -32 9 -56 19 -36 18 -39
-7 -17 -25 20 -30 17 -29 -18 1 -24 -11 -47 -26 -53 -17 -5 -22 0 -14 13 9 15
2 18 -21 9 -31 -12 -30 -15 9 -33 30 -13 44 -37 44 -75 0 -45 7 -54 34 -44 21
8 25 16 10 21 -13 5 -24 18 -24 29 0 11 13 15 29 9 19 -7 25 -1 18 18 -6 16
-19 29 -29 29 -10 0 -18 9 -18 20 0 11 14 20 30 20 17 0 30 14 30 31 0 17 10
25 21 18 13 -8 19 2 15 24 -7 42 -71 107 -104 107 -12 0 -9 -9 7 -19z"/>
<path d="M445 961 c-15 -24 -17 -41 -5 -41 11 0 20 -14 20 -31 0 -19 -10 -26
-25 -17 -20 11 -20 8 0 -13 35 -38 49 -14 41 70 -6 67 -8 70 -31 32z"/>
<path d="M760 964 c0 -24 -9 -44 -20 -44 -11 0 -20 -9 -20 -20 0 -11 11 -18
25 -15 36 7 60 78 36 102 -15 15 -21 7 -21 -23z"/>
<path d="M2933 949 c13 -34 -33 -33 -58 1 -8 11 -14 2 -14 -20 0 -22 6 -49 14
-60 23 -31 65 -33 65 -3 0 37 85 20 134 -26 30 -27 42 -29 61 -10 25 28 26
112 1 96 -9 -5 -13 -16 -8 -24 5 -8 0 -28 -11 -44 -17 -24 -19 -23 -10 6 12
34 -58 91 -82 67 -6 -7 -1 -12 12 -12 13 0 23 -8 23 -17 0 -10 -22 -13 -50 -8
-27 5 -50 18 -50 29 0 10 9 13 20 6 11 -7 20 -4 20 7 0 10 -14 24 -32 31 -45
17 -48 16 -35 -19z"/>
<path d="M3340 959 c0 -12 -8 -16 -19 -10 -10 6 -23 4 -28 -5 -6 -9 20 -18 58
-21 54 -3 66 2 56 26 -13 35 -67 42 -67 10z"/>
<path d="M2566 921 c-2 -21 11 -50 29 -65 20 -16 27 -17 19 -2 -8 13 -6 29 5
35 25 16 4 71 -27 71 -13 0 -25 -17 -26 -39z"/>
<path d="M1629 906 c-8 -20 -14 -43 -12 -52 2 -8 -10 -20 -27 -27 -16 -6 -30
-31 -30 -54 -1 -35 -4 -38 -20 -13 -15 23 -19 13 -20 -39 0 -66 1 -67 31 -30
18 22 28 30 23 19 -6 -11 4 -33 21 -48 27 -26 29 -18 16 67 -9 62 -7 91 6 83
11 -7 26 15 33 49 16 71 3 98 -21 45z"/>
<path d="M1920 920 c0 -12 -10 -16 -21 -9 -12 7 -10 -6 4 -29 28 -44 77 -57
77 -21 0 12 -13 35 -30 52 -18 18 -30 21 -30 7z"/>
<path d="M1254 880 c9 -32 22 -40 54 -32 23 6 53 12 67 12 39 0 30 31 -10 34
-19 1 -55 8 -79 16 -37 12 -42 8 -32 -30z"/>
<path d="M1693 907 c-7 -7 6 -29 28 -48 29 -25 33 -38 15 -44 -14 -5 -21 -15
-14 -23 7 -7 23 -1 35 15 24 29 -38 126 -64 100z"/>
<path d="M310 861 c7 -24 0 -45 -21 -56 -21 -12 -29 -36 -23 -67 l9 -48 15 45
c8 24 21 41 29 36 8 -5 16 22 17 60 2 38 -7 69 -18 69 -11 0 -15 -17 -8 -39z"/>
<path d="M1132 736 c16 -154 28 -174 28 -49 0 52 9 93 21 93 12 0 16 -8 10
-19 -6 -10 -3 -24 9 -31 46 -28 16 68 -31 99 l-51 33 14 -126z"/>
<path d="M3362 843 c-1 -15 16 -31 38 -37 22 -6 40 -21 40 -34 0 -13 18 -25
40 -27 22 -1 40 6 40 16 0 11 -13 19 -30 19 -16 0 -30 9 -30 20 0 11 -17 20
-38 20 -21 0 -43 11 -49 25 -7 19 -10 18 -11 -2z"/>
<path d="M135 798 c21 -81 83 -191 84 -148 0 22 -13 57 -29 78 -16 21 -25 45
-20 53 5 8 -3 25 -19 38 -23 19 -26 15 -16 -21z"/>
<path d="M473 730 c-7 -49 -8 -119 -2 -155 8 -51 6 -57 -9 -25 -14 30 -19 7
-19 -90 1 -118 2 -124 20 -62 25 85 52 60 62 -58 l8 -90 4 105 c1 58 12 105
23 105 11 0 19 25 19 55 l-2 55 -19 -48 c-34 -87 -69 21 -62 193 6 129 -6 137
-23 15z"/>
<path d="M693 789 c-7 -16 -3 -29 8 -29 10 0 20 -25 21 -55 l1 -55 20 55 c16
42 13 62 -9 84 -27 26 -31 26 -41 0z"/>
<path d="M824 796 c-13 -13 -24 -47 -24 -75 -1 -86 -23 -148 -42 -118 -11 18
-17 3 -16 -43 1 -38 6 -59 11 -45 6 14 19 20 29 14 10 -6 18 15 18 48 0 60 48
100 68 57 6 -13 9 -6 5 16 -3 22 -17 38 -31 34 -14 -3 -22 9 -19 27 4 17 16
31 27 31 25 1 58 57 42 73 -7 6 -12 -1 -12 -17 -1 -21 -4 -22 -16 -3 -13 19
-22 19 -40 1z"/>
<path d="M1004 790 c0 -47 31 -152 34 -114 1 15 9 22 18 17 9 -6 17 7 19 28 1
22 -10 39 -25 39 -15 0 -31 16 -36 35 -8 29 -9 28 -10 -5z"/>
<path d="M1902 716 c3 -60 -2 -121 -12 -135 -21 -35 -24 -117 -7 -186 11 -40
7 -55 -14 -55 -17 0 -24 13 -17 35 10 33 10 33 -12 0 -24 -39 -9 -83 22 -64
11 7 32 2 47 -10 15 -12 34 -21 44 -19 35 6 67 -2 65 -17 -9 -53 4 -66 34 -36
18 18 27 46 20 63 -7 17 -3 25 8 18 11 -7 20 -25 20 -41 0 -38 78 -38 92 0 17
44 84 31 72 -15 -7 -29 -14 -32 -28 -11 -15 22 -17 21 -11 -2 4 -17 30 -36 56
-43 42 -12 43 -15 9 -18 -22 -2 -29 -8 -16 -13 37 -15 106 30 106 69 -1 29 -3
30 -20 4 -17 -27 -19 -27 -20 0 0 24 -4 25 -18 3 -13 -21 -19 -20 -28 5 -7 17
-3 37 9 44 11 7 16 29 11 49 -6 21 3 41 21 48 21 8 27 1 20 -25 -6 -26 3 -37
33 -39 31 -2 34 1 14 14 -24 15 -23 23 5 51 18 18 33 35 33 38 0 11 -72 -1
-95 -15 -14 -9 -25 -7 -25 2 0 10 -13 18 -29 18 -30 0 -35 -75 -5 -95 9 -7 3
-18 -14 -25 -22 -8 -32 0 -32 26 0 28 -10 35 -42 26 -29 -7 -34 -15 -16 -26
19 -12 18 -22 -6 -46 -35 -35 -56 -24 -56 30 0 20 -10 35 -22 32 -14 -3 -25
36 -29 102 -4 74 -17 115 -43 134 -45 35 -66 36 -66 4 1 -39 34 -81 54 -69 10
6 18 -20 18 -57 0 -38 -7 -69 -16 -69 -9 0 -11 -24 -3 -53 9 -37 6 -49 -10
-39 -13 8 -23 30 -23 49 0 20 -18 55 -41 79 -22 24 -34 44 -26 44 8 0 5 10 -7
22 -13 13 -18 36 -12 51 9 23 16 21 38 -7 23 -31 24 -28 9 29 -13 45 -12 62 2
53 13 -8 17 1 10 24 -31 103 -36 158 -13 128 19 -25 22 -25 15 -1 -22 82 -58
40 -53 -63z"/>
<path d="M2073 807 c-7 -8 -12 -50 -11 -95 1 -85 6 -82 27 15 14 63 35 57 45
-12 8 -51 46 -98 46 -57 0 75 -75 180 -107 149z"/>
<path d="M3882 810 c-3 -38 -138 -173 -151 -152 -13 21 -169 12 -190 -11 -6
-7 13 -8 43 -3 29 6 65 2 80 -7 20 -12 20 -16 1 -17 -14 0 -25 -9 -25 -20 0
-11 14 -20 30 -20 46 0 35 -27 -20 -53 -28 -13 -45 -16 -40 -7 6 10 2 23 -10
30 -18 11 -29 -15 -22 -55 1 -8 -12 -15 -29 -15 -17 0 -26 -9 -18 -21 8 -14
20 -14 37 -1 14 12 48 16 78 11 43 -8 51 -3 40 23 -10 28 -6 29 31 10 38 -21
46 -17 63 27 21 56 60 69 60 21 0 -16 14 -30 30 -30 17 0 30 13 30 29 0 18 12
25 30 18 17 -6 30 -2 30 9 0 11 -11 24 -25 29 -14 5 -25 25 -25 45 0 20 -13
41 -28 46 -20 7 -24 -1 -15 -24 7 -20 4 -29 -7 -22 -30 18 -24 63 12 99 17 17
27 43 21 56 -5 14 -11 16 -11 5z"/>
<path d="M0 751 c0 -16 14 -37 31 -46 16 -10 35 -42 40 -73 7 -39 4 -51 -13
-41 -16 10 -19 7 -9 -9 26 -43 94 48 82 110 -11 63 -31 89 -31 41 0 -46 -42
-41 -54 7 -12 46 -46 54 -46 11z"/>
<path d="M950 740 c12 -19 8 -23 -16 -14 -28 10 -29 5 -10 -36 12 -27 31 -43
42 -37 10 7 15 0 9 -15 -5 -15 -20 -26 -32 -23 -12 2 -18 -7 -14 -20 21 -70
30 -497 10 -484 -14 9 -20 -6 -16 -42 4 -31 21 -60 37 -66 27 -8 27 -5 0 28
-23 28 -23 33 -2 20 23 -14 26 17 16 191 -7 114 -5 186 3 158 14 -44 17 -39
28 40 7 51 4 99 -7 110 -14 13 -16 7 -6 -20 11 -32 9 -35 -12 -16 -21 20 -21
30 -1 55 29 35 13 161 -23 183 -14 9 -16 5 -6 -12z"/>
<path d="M1294 690 c7 -44 13 -91 13 -105 0 -63 33 -16 35 50 2 67 4 70 18 25
13 -41 16 -43 18 -10 2 52 -28 98 -54 82 -11 -7 -26 -1 -32 13 -6 14 -5 -11 2
-55z"/>
<path d="M2900 723 c0 -8 9 -24 20 -35 14 -14 10 -33 -11 -59 -18 -21 -27 -29
-21 -17 5 12 -1 21 -15 21 -28 0 -31 -48 -5 -89 8 -14 6 -37 -6 -52 -12 -14
-16 -32 -8 -39 21 -21 86 -15 86 8 0 12 9 16 20 9 12 -7 16 -21 10 -30 -6 -9
-2 -23 9 -29 31 -20 1 -70 -34 -56 -23 9 -29 3 -20 -19 9 -24 2 -29 -30 -21
-41 11 -41 11 -3 -27 56 -56 148 -51 148 8 0 26 -9 41 -20 34 -11 -7 -14 2 -7
21 8 20 18 24 26 11 15 -25 161 -23 161 2 0 10 -10 12 -21 5 -12 -7 -11 5 3
28 19 30 35 36 60 22 27 -15 32 -11 25 18 -10 36 -51 48 -106 30 -26 -8 -26
-11 0 -28 24 -15 23 -18 -6 -19 -19 0 -33 -11 -30 -24 3 -13 -11 -27 -30 -31
-22 -5 -35 4 -35 23 0 17 -11 26 -25 21 -14 -5 -37 18 -53 53 -18 41 -32 54
-42 38 -11 -18 -19 -18 -29 -2 -22 37 73 62 111 30 41 -37 69 -36 39 1 -29 35
45 28 88 -8 19 -16 33 -12 53 13 19 23 20 29 3 19 -53 -32 -106 6 -95 68 6 33
2 59 -10 59 -18 0 -28 -28 -22 -65 1 -8 -11 -15 -28 -15 -16 0 -30 -11 -30
-25 -1 -17 -7 -15 -20 5 -13 20 -19 22 -20 5 0 -14 -23 -24 -55 -23 -34 2 -42
6 -20 12 19 5 36 15 37 22 1 8 5 38 10 67 6 35 -2 56 -22 64 -16 6 -30 5 -30
-4z"/>
<path d="M1781 657 c1 -75 49 -152 67 -106 7 20 3 42 -10 50 -13 8 -18 24 -11
34 7 11 -1 32 -17 45 -25 21 -30 17 -29 -23z"/>
<path d="M3177 687 c-52 -14 -64 -67 -15 -67 46 0 103 -48 83 -69 -8 -7 3 -7
24 1 31 12 35 8 23 -24 -11 -30 -9 -33 10 -13 20 19 18 32 -9 61 -18 21 -27
43 -20 51 8 7 -4 14 -25 15 -21 0 -27 6 -13 11 14 6 20 19 14 29 -12 19 -17
19 -72 5z"/>
<path d="M392 480 c4 -103 12 -191 18 -196 18 -18 10 325 -8 354 -11 17 -15
-47 -10 -158z"/>
<path d="M652 502 c-8 -80 -19 -161 -25 -179 -8 -28 -7 -28 9 -3 10 17 26 66
34 110 15 74 17 76 31 30 8 -27 16 -36 17 -20 1 17 -11 70 -25 119 l-27 90
-14 -147z"/>
<path d="M1520 610 c-18 -22 -19 -30 -2 -30 16 0 20 -25 13 -75 -11 -75 -11
-75 12 -15 13 33 33 66 44 74 14 9 9 19 -12 27 -19 7 -30 21 -24 31 18 29 -4
21 -31 -12z"/>
<path d="M2589 567 c9 -34 4 -60 -13 -71 -18 -13 -12 -15 17 -6 24 6 50 2 57
-10 7 -11 21 -16 31 -9 10 6 13 -3 7 -20 -7 -17 -25 -31 -40 -31 -15 0 -28 -9
-28 -20 0 -11 -14 -20 -31 -20 -22 0 -28 12 -20 38 10 32 5 37 -29 28 -39 -10
-40 -13 -8 -49 37 -40 108 -51 108 -16 0 12 8 16 19 10 10 -6 24 -2 31 9 7 11
21 16 31 9 10 -6 34 -2 54 8 29 16 36 10 38 -29 2 -31 -8 -48 -27 -48 -20 0
-26 -11 -18 -32 9 -24 4 -29 -19 -20 -18 6 -36 12 -41 12 -4 0 -9 16 -9 35 -2
30 -4 29 -18 -5 -8 -22 -8 -60 1 -84 12 -34 10 -42 -12 -33 -16 6 -22 24 -15
44 11 29 8 30 -22 5 -32 -26 -31 -30 10 -59 50 -34 144 -51 126 -21 -13 21 66
200 97 221 11 7 -2 24 -28 38 -27 14 -50 24 -53 22 -18 -12 -45 1 -35 17 7 12
-6 17 -33 13 -51 -8 -119 59 -103 101 6 14 -1 26 -14 26 -16 0 -20 -17 -11
-53z"/>
<path d="M2792 569 c-6 -17 -21 -26 -32 -19 -28 17 -25 -17 4 -46 29 -29 63
-32 46 -4 -7 11 1 14 19 8 17 -7 31 -2 31 10 0 12 -15 22 -32 22 -27 0 -28 5
-8 30 14 17 16 30 5 30 -12 0 -26 -14 -33 -31z"/>
<path d="M4020 564 c0 -15 -9 -21 -20 -14 -11 7 -14 -1 -8 -19 7 -17 24 -31
39 -31 25 0 25 -71 0 -96 -11 -11 59 -77 94 -89 12 -4 15 -19 7 -32 -11 -18
-23 -19 -42 -3 -18 15 -30 15 -39 1 -15 -24 -17 -24 53 -30 30 -3 50 2 45 10
-4 8 5 26 21 39 44 37 37 55 -20 49 -59 -6 -93 41 -71 100 9 23 8 59 0 81 -9
22 -17 31 -18 20 -1 -11 -10 -6 -21 10 -14 22 -19 23 -20 4z"/>
<path d="M1361 490 c-4 -71 -7 -75 -21 -30 -12 38 -16 23 -16 -60 1 -93 3
-101 17 -50 14 51 16 46 13 -35 -2 -52 3 -95 11 -95 8 0 15 41 15 91 0 68 6
87 25 76 19 -11 20 -8 2 14 -13 16 -28 61 -32 99 l-9 70 -5 -80z"/>
<path d="M2174 503 c5 -28 0 -41 -13 -33 -12 7 -21 3 -21 -8 0 -11 9 -25 20
-32 12 -7 15 -21 9 -31 -6 -11 -1 -19 11 -19 13 0 19 11 15 25 -5 14 -2 46 8
71 10 28 9 42 -2 35 -10 -6 -22 0 -27 14 -4 14 -5 4 0 -22z"/>
<path d="M863 449 c-2 -56 -13 -111 -24 -122 -15 -15 -13 -25 8 -33 40 -15 53
52 34 166 l-16 90 -2 -101z"/>
<path d="M290 460 c-7 -33 -20 -60 -29 -60 -8 0 -11 -22 -6 -50 5 -27 18 -45
28 -38 10 6 14 17 9 25 -5 8 -2 27 7 41 10 17 21 -8 30 -68 9 -61 21 -88 33
-76 13 13 12 40 -2 77 -12 31 -21 80 -19 108 7 117 -28 145 -51 41z"/>
<path d="M1709 475 c4 -30 2 -55 -6 -55 -20 0 -26 -80 -9 -140 12 -48 14 -47
28 20 13 60 15 55 10 -33 -4 -74 0 -97 16 -82 26 25 38 195 13 195 -10 0 -13
16 -8 35 5 19 -5 53 -22 75 -30 39 -31 38 -22 -15z"/>
<path d="M778 415 c-5 -59 -1 -92 12 -88 11 4 17 28 14 55 -5 38 -1 42 14 18
16 -24 20 -21 17 14 -2 24 -10 39 -18 34 -8 -5 -18 7 -22 27 -4 19 -12 -8 -17
-60z"/>
<path d="M3851 476 c-17 -10 -40 -13 -51 -6 -41 25 -139 -51 -140 -109 0 -23
5 -24 24 -5 13 13 46 24 72 24 37 0 46 9 39 36 -6 24 2 35 28 35 25 0 37 -14
37 -44 0 -46 85 -123 96 -88 4 10 22 14 40 7 26 -9 25 -4 -5 19 -22 17 -53 26
-70 21 -20 -6 -19 -1 5 14 28 18 31 29 13 51 -12 15 -18 35 -12 45 14 23 -35
22 -76 0z"/>
<path d="M1202 435 c-9 -24 -9 -70 0 -101 9 -31 11 -69 5 -85 -6 -16 -1 -29
11 -29 12 0 22 11 22 25 0 14 6 47 13 73 10 37 7 44 -13 32 -21 -13 -24 0 -14
57 13 82 1 96 -24 28z"/>
<path d="M59 407 c-11 -29 -15 -57 -10 -63 6 -6 11 2 11 18 1 23 4 23 20 -2
15 -23 19 -14 20 35 0 79 -14 83 -41 12z"/>
<path d="M1088 325 c-11 -80 -12 -145 -3 -145 10 0 11 -10 3 -23 -8 -14 -5
-18 8 -10 12 8 19 43 15 78 -3 36 -2 49 3 30 5 -20 17 -30 28 -24 10 7 12 22
4 35 -8 13 -20 65 -26 114 -11 90 -11 90 -32 -55z"/>
<path d="M3621 422 c-26 -49 -66 -54 -108 -12 -36 36 -66 40 -37 5 11 -14 24
-34 27 -45 4 -11 30 -18 57 -15 l50 5 -46 -26 c-25 -14 -39 -32 -32 -39 7 -7
26 0 42 16 16 16 38 24 48 18 10 -7 17 -5 15 5 -3 9 2 37 11 63 21 60 2 78
-27 25z"/>
<path d="M1432 364 c-16 -26 -21 -174 -7 -197 8 -11 16 -53 18 -94 3 -40 12
-66 20 -58 8 8 6 55 -5 105 -12 50 -18 128 -14 175 7 88 5 96 -12 69z"/>
<path d="M2442 368 c-3 -42 66 -88 98 -65 24 17 23 18 -8 8 -33 -10 -34 -8
-10 22 25 30 23 33 -16 23 -25 -7 -48 -2 -53 11 -7 16 -10 16 -11 1z"/>
<path d="M3244 366 c21 -5 29 -20 22 -39 -6 -17 -17 -22 -24 -12 -7 11 -30 1
-52 -21 -40 -39 -40 -39 5 -16 37 19 45 18 45 -7 0 -17 14 -31 30 -31 17 0 30
9 30 20 0 11 -9 20 -21 20 -14 0 -14 12 0 37 22 43 9 64 -37 61 -27 -2 -26 -4
2 -12z"/>
<path d="M3331 355 c-4 -14 -7 -38 -7 -55 0 -16 -6 -48 -15 -70 -15 -35 -13
-37 17 -13 18 15 47 22 63 16 32 -12 101 43 81 64 -7 6 -18 3 -26 -8 -44 -61
-93 -26 -89 66 0 14 -3 25 -8 25 -4 0 -12 -11 -16 -25z"/>
<path d="M1491 270 c-8 -51 -11 -97 -6 -101 15 -15 48 149 34 172 -7 13 -20
-19 -28 -71z"/>
<path d="M3827 335 c6 -38 33 -75 54 -75 28 0 23 39 -10 71 -35 36 -49 37 -44
4z"/>
<path d="M4263 322 c20 -31 31 -34 60 -15 35 21 35 23 2 36 -68 27 -87 20 -62
-21z"/>
<path d="M3709 311 c-22 -17 -32 -30 -23 -30 8 -1 6 -19 -6 -41 -15 -27 -15
-40 -1 -40 12 0 21 9 21 19 0 57 76 58 142 1 37 -32 77 -59 88 -59 11 0 7 8
-10 19 -26 17 -26 19 3 20 18 0 38 13 44 30 7 17 3 30 -8 30 -10 0 -19 -8 -19
-19 0 -24 -123 11 -141 41 -8 13 -24 17 -37 10 -13 -9 -17 -3 -10 17 15 39 6
39 -43 2z"/>
<path d="M754 258 c-8 -30 -22 -39 -44 -31 -20 8 -27 4 -19 -9 7 -11 26 -16
41 -10 20 8 29 -7 30 -54 1 -35 9 -86 18 -114 8 -28 11 15 5 100 -12 168 -15
180 -31 118z"/>
<path d="M1549 238 c-9 -27 -14 -74 -11 -105 4 -37 -2 -53 -16 -44 -14 8 -21
-7 -21 -43 2 -48 4 -51 18 -16 16 40 16 40 26 0 6 -22 11 -2 13 45 1 47 11 85
22 85 25 0 26 60 2 98 -14 21 -21 17 -33 -20z"/>
<path d="M1830 263 c-22 -22 -8 -64 35 -103 29 -27 33 -38 13 -30 -26 10 -33
0 -33 -44 1 -31 5 -45 10 -31 4 14 25 25 45 25 52 0 65 30 49 104 -13 58 -16
60 -40 29 -17 -24 -30 -28 -39 -13 -7 12 -4 33 8 48 21 25 -24 40 -48 15z"/>
<path d="M2466 227 c-8 -20 2 -43 24 -59 34 -25 32 -28 -18 -47 -65 -25 -77
-26 -65 -6 5 8 -11 15 -36 15 -24 0 -44 -11 -44 -24 0 -13 7 -20 16 -14 10 6
17 -1 17 -16 0 -16 6 -18 15 -6 8 11 41 22 74 24 109 8 122 22 72 75 -25 26
-39 58 -32 70 7 11 8 21 2 21 -7 0 -18 -15 -25 -33z"/>
<path d="M2822 216 c11 -20 29 -32 39 -25 10 6 19 2 19 -8 0 -11 -18 -26 -40
-33 -22 -7 -35 -21 -29 -31 7 -12 29 -10 55 4 50 27 44 29 121 -58 78 -89 146
-89 146 0 0 36 -4 53 -8 39 -7 -19 -17 -17 -38 10 -27 34 -28 34 -17 -7 7 -28
1 -46 -20 -54 -18 -7 -27 -5 -21 5 6 10 -10 31 -36 48 -57 37 -62 94 -8 83 23
-4 34 2 29 17 -5 15 -39 22 -93 17 -48 -3 -80 2 -74 12 6 10 -1 18 -17 18 -21
0 -23 -9 -8 -37z"/>
<path d="M1615 194 c-6 -24 -17 -62 -26 -84 -8 -22 -8 -34 0 -26 9 8 28 2 43
-14 34 -33 37 -58 5 -38 -14 9 -18 5 -9 -9 32 -51 56 -20 49 65 -4 49 0 84 8
79 8 -5 15 -2 15 7 0 46 -76 63 -85 20z"/>
<path d="M645 109 l0 -119 25 80 c14 44 27 64 28 45 1 -19 12 -35 24 -35 12 0
17 14 10 32 -7 17 -12 41 -12 53 0 12 -6 16 -13 9 -7 -8 -24 2 -37 20 -20 27
-25 13 -25 -85z"/>
<path d="M3360 200 c0 -11 -22 -20 -50 -20 -27 0 -50 -8 -50 -17 0 -9 -19 -25
-43 -36 -38 -17 -39 -22 -11 -51 18 -17 27 -36 21 -42 -6 -6 8 -6 31 0 33 8
37 18 21 47 -15 29 -11 42 21 59 22 12 38 13 35 3 -3 -11 3 -18 14 -16 18 3
37 93 20 93 -5 0 -9 -9 -9 -20z"/>
<path d="M494 142 c-23 -112 -19 -136 17 -91 30 38 31 38 19 -6 -8 -26 -4 -45
9 -45 11 0 21 20 21 45 0 25 5 68 11 95 l10 50 -24 -50 -23 -50 -13 60 -13 60
-14 -68z"/>
<path d="M278 175 c0 -3 -4 -21 -8 -41 -4 -20 -21 -58 -39 -85 -31 -47 -30
-48 16 -30 32 12 57 10 75 -5 15 -13 13 -6 -5 16 -18 23 -28 64 -24 95 6 42
-5 81 -15 50z"/>
<path d="M1162 106 c-1 -46 7 -89 18 -96 23 -14 23 31 0 120 -14 57 -15 55
-18 -24z"/>
<path d="M3794 138 c-10 -38 -116 -44 -171 -10 -22 14 -23 9 -5 -25 15 -27 34
-37 56 -29 25 10 30 5 20 -20 -7 -18 -4 -38 7 -45 10 -6 19 1 19 16 0 16 21
39 46 53 59 32 102 95 64 95 -15 0 -31 -16 -36 -35z"/>
<path d="M2600 142 c0 -10 11 -23 25 -29 20 -8 20 -10 0 -11 -36 -3 -31 -55 5
-55 20 0 30 19 30 56 0 37 -10 57 -30 57 -16 0 -30 -8 -30 -18z"/>
<path d="M1715 103 c-8 -30 0 -35 43 -29 48 6 49 5 9 -12 -71 -32 -68 -54 7
-54 40 0 63 3 52 7 -11 3 -16 30 -10 59 6 34 2 47 -12 39 -12 -8 -27 -5 -34 7
-19 31 -44 24 -55 -17z"/>
<path d="M2120 80 c0 -11 9 -20 20 -20 11 0 18 -11 15 -25 -3 -14 19 -28 50
-31 35 -4 55 3 55 20 1 19 6 18 20 -4 16 -25 19 -24 20 6 0 28 -10 34 -40 24
-28 -9 -40 -4 -40 19 0 20 -18 31 -50 31 -27 0 -50 -9 -50 -20z"/>
<path d="M2460 60 c-16 -11 -21 -20 -10 -21 11 -1 2 -10 -20 -19 -34 -15 -31
-17 21 -19 47 -1 61 8 64 39 3 44 -10 49 -55 20z"/>
</g>
</svg>
