<?xml version="1.0" encoding="UTF-8" standalone="no"?>
<svg
   version="1.1"
   width="201.83788"
   height="71.46302"
   viewBox="0 0 2018.3789 714.63019"
   id="svg237"
   sodipodi:docname="logo1.svg"
   inkscape:export-filename="logo1.svg"
   inkscape:export-xdpi="70"
   inkscape:export-ydpi="70"
   xmlns:inkscape="http://www.inkscape.org/namespaces/inkscape"
   xmlns:sodipodi="http://sodipodi.sourceforge.net/DTD/sodipodi-0.dtd"
   xmlns="http://www.w3.org/2000/svg"
   xmlns:svg="http://www.w3.org/2000/svg">
  <sodipodi:namedview
     id="namedview1"
     pagecolor="#ffffff"
     bordercolor="#000000"
     borderopacity="0.25"
     inkscape:showpageshadow="2"
     inkscape:pageopacity="0.0"
     inkscape:pagecheckerboard="0"
     inkscape:deskcolor="#d1d1d1"
     showguides="true" />
  <defs
     id="defs241" />
  <g
     id="g424"
     style="display:inline;opacity:1"
     transform="translate(-70.438306,-201.10748)">
    <path
       d="m 118.29706,215.91151 c 3.10271,0 6.21109,1.02667 8.58209,3.07435 l 72.81447,62.99016 c 1.7357,1.49747 3.34661,2.21217 4.69093,2.21217 2.34264,0 3.89116,-2.16112 3.89116,-6.13736 v -15.19592 c 0,-6.26214 5.08232,-11.34446 11.34446,-11.34446 h 28.33281 c 6.26215,0 11.34447,5.08232 11.34447,11.34446 v 59.33157 c 0,6.26215 3.8401,14.6684 8.58209,18.76943 l 35.36638,30.59603 c 4.74199,4.10102 3.49977,7.42495 -2.76238,7.42495 h -29.84162 c -6.26215,0 -11.34447,4.49808 -11.34447,10.04553 0,5.54744 0,10.04552 0,10.04552 v 149.11737 c 0,6.26214 -5.08232,11.34446 -11.34447,11.34446 H -11.353198 c -6.262147,0 -11.344468,-5.08232 -11.344468,-11.34446 V 390.32703 c 0,-6.26215 -5.082322,-11.34447 -11.344469,-11.34447 h -29.841623 c -6.262147,0 -7.504366,-3.32393 -2.762378,-7.42495 L 109.72064,218.99153 c 2.36532,-2.05902 5.4737,-3.08002 8.57642,-3.08002 m 0,-17.01671 c -7.32286,0 -14.32239,2.56385 -19.711017,7.21508 L -77.780732,358.68731 c -11.594046,10.02284 -8.718224,20.94189 -7.561088,24.05027 1.157136,3.11406 6.126013,13.25601 21.458062,13.25601 h 24.169389 v 152.18604 c 0,15.63835 12.722821,28.36117 28.361171,28.36117 H 247.95298 c 15.63835,0 28.36117,-12.72282 28.36117,-28.36117 v -149.11736 -3.06868 h 24.16939 c 15.33205,0 20.30093,-10.14195 21.45807,-13.25601 1.15713,-3.10838 4.03295,-14.0331 -7.56677,-24.05594 l -35.3607,-30.59603 c -1.07773,-1.02101 -2.63192,-4.41867 -2.69999,-5.93316 v -59.29754 c 0,-15.63834 -12.72282,-28.36117 -28.36117,-28.36117 h -28.33281 c -12.37681,0 -22.92717,7.96949 -26.78996,19.04169 l -54.81647,-47.41987 c -5.39429,-4.65691 -12.39383,-7.22076 -19.71668,-7.22076 z"
       fill="#ffffff"
       data-fill-palette-color="accent"
       id="path211"
       style="display:inline;opacity:1;fill:#003366;stroke-width:5.67223"
       transform="matrix(1.8923284,0,0,1.8923284,234.16222,-175.2668)" />
    <path
       d="m 170.86015,538.89464 a 30.700185,30.700185 0 0 1 -10.50878,-1.81756 v 0 a 31.724626,31.724626 0 0 1 -14.24303,-10.37659 46.760776,46.760776 0 0 1 -0.4957,6.60929 3.3046485,3.3046485 0 0 1 -3.04028,2.80895 35.392785,35.392785 0 0 1 -29.18004,-10.34354 v 0 a 30.204487,30.204487 0 0 1 -5.02307,-7.07196 48.941844,48.941844 0 0 1 -2.31326,4.79175 3.3046485,3.3046485 0 0 1 -3.86643,1.55318 35.458878,35.458878 0 0 1 -23.56215,-20.02617 30.468859,30.468859 0 0 1 -1.78451,-6.14665 42.729105,42.729105 0 0 1 -4.72565,6.80758 3.3046485,3.3046485 0 0 1 -4.06471,0.79312 35.491925,35.491925 0 0 1 -19.16696,-24.19003 q -0.19828,-0.9914 -0.29742,-1.98279 c -0.85921,0.89226 -1.75147,1.78451 -2.70981,2.67677 a 3.3046485,3.3046485 0 0 1 -4.263,0.4296 35.425832,35.425832 0 0 1 -16.12669,-26.43719 v 0 a 30.105348,30.105348 0 0 1 0.82617,-9.41825 44.017918,44.017918 0 0 1 -7.17109,3.70121 3.3046485,3.3046485 0 0 1 -3.99862,-1.15663 35.425832,35.425832 0 0 1 -6.14665,-30.33667 34.566623,34.566623 0 0 1 18.83649,-21.11671 229.4087,229.4087 0 0 1 -6.87366,-22.17419 254.45794,254.45794 0 0 1 -6.1797,-33.44304 c -0.19827,-1.35491 -0.33046,-2.70981 -0.4296,-4.06472 a 3.3165665,3.3165665 0 0 1 6.6093,-0.56179 c 0,1.25577 0.19828,2.47849 0.39655,3.7673 a 251.91335,251.91335 0 0 0 6.04751,32.68297 220.78357,220.78357 0 0 0 7.66679,24.19003 2.7759048,2.7759048 0 0 1 0,0.56179 30.898463,30.898463 0 0 1 13.51601,-2.67676 35.458878,35.458878 0 0 1 26.96593,15.20138 3.3046485,3.3046485 0 0 1 0,4.13081 44.315336,44.315336 0 0 1 -5.78314,5.65095 36.780738,36.780738 0 0 1 21.08366,15.96145 3.3046485,3.3046485 0 0 1 -0.39656,4.13082 l -1.421,1.42099 a 36.351133,36.351133 0 0 1 24.48745,16.09364 3.3046485,3.3046485 0 0 1 0.16523,3.50293 37.739086,37.739086 0 0 1 3.86644,0 35.72325,35.72325 0 0 1 26.43719,16.32496 3.3046485,3.3046485 0 0 1 0,3.73425 h 1.32186 a 35.558018,35.558018 0 0 1 28.7174,11.63237 3.3046485,3.3046485 0 0 1 0.39655,4.13081 46.265079,46.265079 0 0 1 -5.25439,6.6093 q 1.28882,0.36351 2.57763,0.79311 a 35.326692,35.326692 0 0 1 20.91842,22.83512 3.3046485,3.3046485 0 0 1 -1.68537,3.89949 39.127038,39.127038 0 0 1 -20.12531,5.91532 z m -24.22307,-24.22307 a 28.089512,28.089512 0 0 0 15.96145,16.19278 v 0 a 28.056465,28.056465 0 0 0 22.6038,-2.31326 28.023419,28.023419 0 0 0 -15.96146,-16.19278 23.727376,23.727376 0 0 0 -7.93115,-1.421 h -0.62788 a 30.93151,30.93151 0 0 0 -14.04476,3.73426 z M 111.6739,499.63541 a 26.238909,26.238909 0 0 0 27.69295,30.03926 v 0 a 27.990373,27.990373 0 0 0 -6.60929,-21.71154 24.685724,24.685724 0 0 0 -9.15388,-6.17969 2.8089512,2.8089512 0 0 1 -0.72702,-0.29742 33.244764,33.244764 0 0 0 -11.23581,-1.85061 z M 86.39334,479.80752 a 28.023419,28.023419 0 0 0 -1.45405,22.66989 v 0 a 28.023419,28.023419 0 0 0 16.82066,15.36662 28.155605,28.155605 0 0 0 1.45405,-22.66989 26.007584,26.007584 0 0 0 -2.11498,-4.03167 2.8419977,2.8419977 0 0 1 -0.33046,-0.52875 27.759048,27.759048 0 0 0 -9.41825,-8.42685 3.7342528,3.7342528 0 0 1 -0.69398,-0.39656 35.591065,35.591065 0 0 0 -4.39518,-1.9167 z m 43.52222,17.54769 a 30.237534,30.237534 0 0 1 12.06196,12.49157 38.697434,38.697434 0 0 1 18.01034,-5.35353 33.046485,33.046485 0 0 0 7.07195,-7.00586 28.320838,28.320838 0 0 0 -21.34803,-7.79897 26.437188,26.437188 0 0 0 -15.92841,7.73288 z M 61.01363,459.05433 a 28.023419,28.023419 0 0 0 -5.75008,21.97591 v 0 a 28.056465,28.056465 0 0 0 13.44992,18.24166 28.056465,28.056465 0 0 0 5.75009,-21.97591 22.47161,22.47161 0 0 0 -1.61928,-5.1883 1.9497426,1.9497426 0 0 1 -0.19828,-0.46265 30.204487,30.204487 0 0 0 -11.63237,-12.52462 z m 44.84409,27.65991 a 24.322213,24.322213 0 0 0 9.61652,2.74286 h 0.82616 a 28.056465,28.056465 0 0 0 20.35664,-8.36076 28.221698,28.221698 0 0 0 -19.82789,-11.3019 27.891233,27.891233 0 0 0 -20.58796,7.86506 34.170065,34.170065 0 0 1 9.61653,9.05474 z m -73.7928,-30.33668 a 28.056465,28.056465 0 0 0 11.16971,19.82789 26.205862,26.205862 0 0 0 -2.67677,-40.8785 28.155605,28.155605 0 0 0 -8.49294,21.08366 z m 48.90879,19.16697 z m 2.31326,-6.27884 c 0.59483,0 1.22272,0.16524 1.8506,0.19828 a 27.891233,27.891233 0 0 0 21.14975,-8.32771 28.419977,28.419977 0 0 0 -19.82789,-11.33494 24.619631,24.619631 0 0 0 -7.79897,0.76006 34.996228,34.996228 0 0 1 -5.55181,2.11498 31.955951,31.955951 0 0 0 -5.08916,3.30465 35.888482,35.888482 0 0 1 10.21137,12.02892 21.215844,21.215844 0 0 0 4.56041,1.22272 1.0244411,1.0244411 0 0 1 0.4957,0.0331 z M 56.84978,446.13316 a 25.809305,25.809305 0 0 0 5.58485,1.18967 23.628236,23.628236 0 0 0 8.59209,-0.79311 32.220323,32.220323 0 0 1 5.32049,-2.04889 33.872647,33.872647 0 0 0 7.33632,-5.05611 27.891233,27.891233 0 0 0 -19.46439,-11.69846 24.25612,24.25612 0 0 0 -4.09776,0 30.83237,30.83237 0 0 1 -8.16248,2.04888 28.287791,28.287791 0 0 0 -4.79174,2.57763 35.72325,35.72325 0 0 1 9.35216,13.6482 z M 30.41259,404.792 a 28.056465,28.056465 0 0 0 -15.23443,16.82067 28.155605,28.155605 0 0 0 3.73425,22.40551 27.957326,27.957326 0 0 0 15.16834,-16.78761 27.82514,27.82514 0 0 0 -3.04028,-21.24889 l -0.19827,-0.29742 -0.16524,-0.26437 a 5.3535305,5.3535305 0 0 0 -0.33046,-0.72703 z m 11.2358,17.51464 a 23.132539,23.132539 0 0 0 6.14665,0.99139 26.437188,26.437188 0 0 0 2.80896,0 h 0.49569 a 25.908444,25.908444 0 0 0 6.6093,-1.68536 l 0.56179,-0.23133 a 31.955951,31.955951 0 0 0 10.24441,-7.36937 28.122559,28.122559 0 0 0 -20.1914,-10.44269 24.421352,24.421352 0 0 0 -10.11223,1.88365 34.797949,34.797949 0 0 1 3.37074,16.75457 z m 177.45963,90.15081 a 3.3046485,3.3046485 0 0 1 -3.30465,-3.00723 c 0,-1.25577 -0.19827,-2.47849 -0.39656,-3.7673 a 251.91335,251.91335 0 0 0 -6.04751,-32.68298 220.78357,220.78357 0 0 0 -7.66678,-24.19002 2.7759048,2.7759048 0 0 1 0,-0.56179 30.93151,30.93151 0 0 1 -13.48296,2.67676 35.458878,35.458878 0 0 1 -26.99898,-15.20138 3.3046485,3.3046485 0 0 1 0,-4.13081 44.315336,44.315336 0 0 1 5.78313,-5.65095 36.780738,36.780738 0 0 1 -21.08365,-15.96145 3.3046485,3.3046485 0 0 1 0.39655,-4.13081 l 1.421,-1.421 a 36.351133,36.351133 0 0 1 -24.48744,-16.09364 3.3046485,3.3046485 0 0 1 -0.16523,-3.50293 37.739086,37.739086 0 0 1 -3.86644,0 35.624111,35.624111 0 0 1 -26.43719,-16.32496 3.3046485,3.3046485 0 0 1 0,-3.73425 l -1.32186,0.16523 a 35.558018,35.558018 0 0 1 -28.7174,-11.63236 3.3046485,3.3046485 0 0 1 -0.39656,-4.13081 43.984872,43.984872 0 0 1 5.2544,-6.6093 q -1.28881,-0.36351 -2.57763,-0.79312 a 35.326692,35.326692 0 0 1 -20.91842,-22.83512 3.3046485,3.3046485 0 0 1 1.48709,-4.06472 35.392785,35.392785 0 0 1 30.66713,-4.22995 v 0 a 31.724626,31.724626 0 0 1 14.24304,10.3766 46.760776,46.760776 0 0 1 0.4957,-6.6093 3.3046485,3.3046485 0 0 1 3.04028,-2.80895 35.591065,35.591065 0 0 1 29.18004,10.34355 30.204487,30.204487 0 0 1 4.99002,7.20413 48.941844,48.941844 0 0 1 2.31325,-4.79174 3.3046485,3.3046485 0 0 1 3.86644,-1.55318 35.458878,35.458878 0 0 1 23.56215,20.02617 32.782113,32.782113 0 0 1 1.78451,6.14665 42.729105,42.729105 0 0 1 4.82478,-6.80758 3.3046485,3.3046485 0 0 1 3.89949,-0.85921 35.491925,35.491925 0 0 1 19.23305,24.25612 v 0 q 0.19828,0.9914 0.29742,1.98279 c 0.85921,-0.89225 1.75147,-1.78451 2.70982,-2.67676 a 3.3046485,3.3046485 0 0 1 4.13081,-0.26438 35.425832,35.425832 0 0 1 16.12668,26.43719 v 0 a 30.105348,30.105348 0 0 1 -0.82616,9.41825 44.017918,44.017918 0 0 1 7.33632,-3.86644 3.3046485,3.3046485 0 0 1 3.99862,1.15663 35.425832,35.425832 0 0 1 6.14665,30.33668 34.566623,34.566623 0 0 1 -18.8365,21.1167 229.4087,229.4087 0 0 1 6.87367,22.17419 260.17498,260.17498 0 0 1 6.21274,33.44304 q 0.26437,2.01584 0.39655,4.06472 a 3.3046485,3.3046485 0 0 1 -3.00722,3.56902 z M 168.0512,433.83986 a 28.089512,28.089512 0 0 0 20.1914,10.44269 24.223073,24.223073 0 0 0 10.11223,-1.88365 34.797949,34.797949 0 0 1 -3.30465,-16.78761 23.330819,23.330819 0 0 0 -6.14664,-0.9914 26.437188,26.437188 0 0 0 -2.80896,0 h -0.49569 a 25.908444,25.908444 0 0 0 -6.6093,1.68538 l -0.56179,0.23132 a 31.955951,31.955951 0 0 0 -10.3766,7.30327 z m 37.83823,8.72427 0.33046,0.56179 a 28.056465,28.056465 0 0 0 15.16834,-16.88675 28.155605,28.155605 0 0 0 -3.73426,-22.40552 27.957326,27.957326 0 0 0 -15.16833,16.78762 27.527722,27.527722 0 0 0 3.07332,21.24889 v 0.29742 z m -52.87438,-34.07092 a 27.891233,27.891233 0 0 0 19.46438,11.69846 24.25612,24.25612 0 0 0 4.09776,0 30.83237,30.83237 0 0 1 8.16249,-2.04889 26.833746,26.833746 0 0 0 4.75869,-2.57762 36.351133,36.351133 0 0 1 -9.31911,-13.64821 h -0.33047 a 25.809305,25.809305 0 0 0 -5.6179,-1.12357 23.628236,23.628236 0 0 0 -8.59208,0.79311 30.072301,30.072301 0 0 1 -5.28744,2.01584 34.599669,34.599669 0 0 0 -7.36936,4.92392 z m 40.31671,-36.81379 a 28.056465,28.056465 0 0 0 -8.49294,21.08366 28.188651,28.188651 0 0 0 11.1697,19.82789 28.155605,28.155605 0 0 0 8.49296,-21.08366 28.056465,28.056465 0 0 0 -11.16972,-19.82789 z m -63.05269,15.03615 a 28.419977,28.419977 0 0 0 19.82789,11.33495 24.619631,24.619631 0 0 0 7.83202,-0.76008 38.532202,38.532202 0 0 1 5.55181,-2.11497 31.955951,31.955951 0 0 0 5.08916,-3.30465 35.524971,35.524971 0 0 1 -10.21137,-12.02892 21.215844,21.215844 0 0 0 -4.56041,-1.22271 0.9253016,0.9253016 0 0 1 -0.42961,0 c -0.59484,0 -1.22272,-0.16524 -1.8506,-0.19829 a 27.92428,27.92428 0 0 0 -21.24889,8.29467 z m 45.17455,2.01584 v 0 a 28.023419,28.023419 0 0 0 5.75008,-21.97592 v 0 a 28.056465,28.056465 0 0 0 -13.35078,-18.17556 28.254745,28.254745 0 0 0 -5.78313,22.00896 23.760423,23.760423 0 0 0 1.65232,5.1222 3.1063696,3.1063696 0 0 1 0.19828,0.4957 30.204487,30.204487 0 0 0 11.53323,12.52462 z M 99.90935,366.88768 a 28.221698,28.221698 0 0 0 19.82789,11.3019 27.891233,27.891233 0 0 0 20.58796,-7.86506 34.170065,34.170065 0 0 1 -9.55043,-9.0217 24.322213,24.322213 0 0 0 -9.61653,-2.74285 h -0.89225 a 28.386931,28.386931 0 0 0 -20.35664,8.32771 z m 55.65028,5.41962 z m -9.51739,-6.24578 a 33.37695,33.37695 0 0 0 4.263,1.9167 28.023419,28.023419 0 0 0 1.45404,-22.66989 28.023419,28.023419 0 0 0 -16.95284,-15.30053 28.023419,28.023419 0 0 0 -1.45405,22.66989 24.586585,24.586585 0 0 0 2.11498,4.03167 2.8419977,2.8419977 0 0 1 0.33046,0.52875 28.122559,28.122559 0 0 0 9.41825,8.42685 3.7342528,3.7342528 0 0 1 0.82616,0.39656 z M 69.50659,350.52967 a 28.320838,28.320838 0 0 0 21.34802,7.79897 26.437188,26.437188 0 0 0 15.92841,-7.89811 30.237534,30.237534 0 0 1 -12.19416,-12.26024 38.697434,38.697434 0 0 1 -18.01033,5.35353 33.046485,33.046485 0 0 0 -7.07194,7.00585 z m 44.28228,-4.16386 a 33.046485,33.046485 0 0 0 11.20276,1.85061 v 0 a 28.089512,28.089512 0 0 0 -6.60929,-21.71154 v 0 a 28.089512,28.089512 0 0 0 -21.1828,-8.32772 v 0 a 27.990373,27.990373 0 0 0 6.60929,21.71154 24.685724,24.685724 0 0 0 9.15388,6.1797 3.6020668,3.6020668 0 0 1 0.82616,0.29741 z m -38.23478,-9.45129 h 0.33047 a 30.93151,30.93151 0 0 0 14.04475,-3.73425 28.089512,28.089512 0 0 0 -15.96145,-16.19278 v 0 a 28.056465,28.056465 0 0 0 -22.6038,2.31325 28.023419,28.023419 0 0 0 15.96145,16.19278 23.727376,23.727376 0 0 0 7.93116,1.421 z"
       fill="#ffffff"
       data-fill-palette-color="accent"
       id="path443"
       style="display:inline;opacity:1;fill:#003366;stroke-width:3.30465"
       transform="matrix(1.8923284,0,0,1.8923284,234.16222,-175.2668)" />
    <g
       aria-label="KKN"
       transform="matrix(1.1304246,0,0,1.570332,552.136,-672.21804)"
       id="text408"
       style="font-weight:bold;font-size:450.105px;font-family:Futura;-inkscape-font-specification:'Futura Bold';text-align:center;text-anchor:middle;display:inline;opacity:0.318021;fill:#003366;stroke-width:0.901361;stroke-linecap:square;stroke-miterlimit:0;paint-order:stroke fill markers">
      <path
         d="M 395.70927,773.53775 503.28437,633.55509 H 612.20978 L 477.62839,794.24258 624.81273,972.93427 H 510.48605 L 395.70927,825.74993 V 972.93427 H 307.48869 V 633.55509 h 88.22058 z"
         style="fill:#003366"
         id="path1081" />
      <path
         d="M 752.19237,773.53775 859.76747,633.55509 H 968.69288 L 834.11148,794.24258 981.29582,972.93427 H 866.96915 L 752.19237,825.74993 V 972.93427 H 663.97179 V 633.55509 h 88.22058 z"
         style="fill:#003366"
         id="path1083" />
      <path
         d="M 1020.4549,972.93427 V 633.55509 h 88.2206 l 162.938,207.49841 V 633.55509 h 87.7705 v 339.37918 h -87.7705 l -162.938,-207.49841 v 207.49841 z"
         style="fill:#003366"
         id="path1085" />
    </g>
    <path
       d="m 913.61233,563.9911 34.30816,-37.24858 h 17.75347 l -39.84542,42.26746 40.07376,51.09584 h -17.81056 l -31.73932,-41.54183 -2.74009,2.90248 v 38.63935 h -13.30084 v -93.3633 h 13.30084 z m 115.93987,33.43905 h -37.73327 l -9.81862,22.67567 h -14.32837 l 43.61306,-99.22873 42.0717,99.22873 H 1038.8 Z m -5.4231,-13.24259 -13.0725,-31.74594 -13.7004,31.74594 z m 70.1006,-3.86998 27.2867,39.78824 h -16.2693 l -25.1745,-38.21606 h -2.3976 v 38.21606 h -13.3008 v -93.3633 h 15.5842 q 17.468,0 25.2316,6.95388 8.5627,7.73997 8.5627,20.43834 0,9.91682 -5.3659,17.0521 -5.366,7.13527 -14.1571,9.13074 z m -16.5547,-10.70292 h 4.2243 q 18.8951,0 18.8951,-15.29851 0,-14.33103 -18.3814,-14.33103 h -4.738 z m 108.8613,27.81549 h -37.7333 l -9.8186,22.67567 h -14.3284 l 43.6131,-99.22873 42.0717,99.22873 h -14.5567 z m -5.4231,-13.24259 -13.0725,-31.74594 -13.7004,31.74594 z m 53.5459,-20.19646 34.3081,-37.24858 h 17.7535 l -39.8454,42.26746 40.0737,51.09584 h -17.8105 l -31.7394,-41.54183 -2.74,2.90248 v 38.63935 h -13.3008 v -93.3633 h 13.3008 z m 77.4644,-37.24858 v 56.23567 q 0,12.03322 3.7106,17.59631 5.5372,8.04231 15.5843,8.04231 10.104,0 15.6412,-8.04231 3.7106,-5.38168 3.7106,-17.59631 v -56.23567 h 13.3009 v 60.10565 q 0,14.7543 -8.677,24.30832 -9.7616,10.64244 -23.9757,10.64244 -14.2143,0 -23.9187,-10.64244 -8.677,-9.55402 -8.677,-24.30832 v -60.10565 z m 86.3699,0 v 80.12071 h 25.9166 v 13.24259 h -39.2174 v -93.3633 z m 95.218,70.68763 h -37.7333 l -9.8186,22.67567 h -14.3283 l 43.6129,-99.22873 42.0718,99.22873 h -14.5567 z m -5.4231,-13.24259 -13.0725,-31.74594 -13.7004,31.74594 z m 59.6539,-44.20244 v 80.1207 h -13.3008 v -80.1207 h -20.2653 v -13.2426 h 53.7742 v 13.2426 z m 45.3827,23.28036 h 38.0187 v -36.52296 h 13.3008 v 93.3633 h -13.3008 v -43.59776 h -38.0187 v 43.59776 h -13.3008 v -93.3633 h 13.3008 z m 85.7418,-36.52296 v 56.23567 q 0,12.03322 3.7106,17.59631 5.5372,8.04231 15.5843,8.04231 10.104,0 15.6412,-8.04231 3.7106,-5.38168 3.7106,-17.59631 v -56.23567 h 13.3009 v 60.10565 q 0,14.7543 -8.677,24.30832 -9.7616,10.64244 -23.9757,10.64244 -14.2143,0 -23.9187,-10.64244 -8.677,-9.55402 -8.677,-24.30832 v -60.10565 z m 73.0691,93.3633 v -99.71248 l 64.2778,71.23183 v -64.88265 h 13.3008 v 99.04733 l -64.2778,-71.05043 v 65.3664 z m 151.1614,-22.67567 h -37.7333 l -9.8186,22.67567 h -14.3284 l 43.6131,-99.22873 42.0716,99.22873 h -14.5566 z m -5.4231,-13.24259 -13.0725,-31.74594 -13.7004,31.74594 z m 40.2449,35.91826 v -93.3633 h 18.4956 q 13.301,0 21.0074,2.78156 8.2773,2.72108 15.0134,9.25167 13.6434,13.18212 13.6434,34.64843 0,21.52677 -14.2143,34.82982 -7.1356,6.65153 -14.9562,9.25168 -7.307,2.60014 -20.722,2.60014 z m 13.301,-13.24259 h 5.9939 q 8.9623,0 14.8992,-1.99546 5.9368,-2.1164 10.732,-6.712 9.8186,-9.49355 9.8186,-24.73159 0,-15.35899 -9.7045,-24.91301 -8.734,-8.52605 -25.7453,-8.52605 h -5.9939 z m 84.8855,-80.12071 v 56.23567 q 0,12.03322 3.7105,17.59631 5.5373,8.04231 15.5843,8.04231 10.104,0 15.6413,-8.04231 3.7105,-5.38168 3.7105,-17.59631 v -56.23567 h 13.3009 v 60.10565 q 0,14.7543 -8.677,24.30832 -9.7615,10.64244 -23.9757,10.64244 -14.2142,0 -23.9187,-10.64244 -8.6769,-9.55402 -8.6769,-24.30832 v -60.10565 z"
       id="text1"
       style="font-size:120.325px;font-family:Futura;-inkscape-font-specification:Futura;fill:#003366;stroke-width:22.5609"
       aria-label="KARAKULATHUNADU " />
  </g>
</svg>
